<?xml version="1.0" encoding="UTF-8"?>
<!-- Generated by Pixelmator Pro 3.8 -->
<svg width="204" height="300" viewBox="0 0 204 300" xmlns="http://www.w3.org/2000/svg">
    <path id="Shape" fill="#000000" fill-rule="evenodd" stroke="none" d="M 42.789009 254.081635 C 65.688263 262.698792 76.648232 266.319641 81.918213 267.687408 C 89.172928 269.570313 94.050079 270.174286 102 270.174286 C 109.952133 270.174286 114.805222 269.573059 122 267.696533 C 127.225006 266.333771 138.169205 262.718842 146.32045 259.663391 L 161.140915 254.108002 L 182.551331 265.304016 C 194.327072 271.461792 203.963242 276.725006 203.965073 277 C 203.966888 277.274994 194.353302 282.553589 182.601563 288.730194 L 161.234726 299.960388 L 146.367371 294.422638 C 138.190308 291.376862 127.225006 287.761475 122 286.388397 C 114.790588 284.493896 109.968292 283.889587 102 283.882111 C 93.938278 283.874542 89.255356 284.461823 81.833862 286.411102 C 76.517487 287.807465 65.94249 291.275787 58.333862 294.1185 C 50.725235 296.961212 44.050003 299.431549 43.5 299.608154 C 42.949997 299.784729 32.944817 294.88266 21.266266 288.7146 C 9.587711 282.54657 0.035202 277.274994 0.038471 277 C 0.04174 276.725006 9.661949 271.455872 21.41671 265.290833 L 42.789009 254.081635 Z M 160.938385 197.332397 C 190.966995 212.96228 200.722778 218.199631 201.991211 219.054718 C 204.237061 220.568741 203.730698 220.904419 182.655243 231.873138 L 161.013016 243.13681 L 147.45845 238.056778 C 140.003433 235.262772 129.541367 231.744476 124.209442 230.238373 C 115.989716 227.916565 112.612381 227.5 102.007507 227.5 C 92.285324 227.5 87.703064 227.98584 81.430847 229.681641 C 76.992821 230.881531 67.092827 234.193512 59.430855 237.04158 C 51.768883 239.889648 44.824997 242.399719 44 242.619522 C 43.175003 242.839325 32.889809 237.990265 21.14402 231.843826 C 0.574409 221.079987 -0.133614 220.610153 1.915798 219.084244 C 3.086063 218.212906 12.778912 213 23.45546 207.5 C 42.867363 197.5 42.867363 197.5 50.683678 200.356735 C 54.982658 201.927948 63.593735 204.975677 69.819412 207.129486 C 76.045082 209.283295 85.495087 211.784302 90.819412 212.687302 C 98.923126 214.061676 101.966019 214.144012 109.5 213.19281 C 114.449997 212.567856 122.100006 210.975647 126.5 209.654572 C 130.899994 208.333481 140.448639 205.020554 147.719193 202.292511 L 160.938385 197.332397 Z M 44.070824 185.540466 C 42.213745 185.842987 35.855461 182.953659 21.168976 175.133453 C 9.986912 169.17926 0.83569 163.940262 0.832928 163.491226 C 0.830162 163.042191 9.979126 157.793884 21.163948 151.828339 C 35.472282 144.196838 42.241013 141.100235 44 141.381134 C 45.375 141.600708 52.800003 144.132217 60.5 147.006714 C 68.199997 149.88121 78.324997 153.19313 83 154.366531 C 88.987396 155.869354 94.603806 156.5 102 156.5 C 109.396194 156.5 115.012604 155.869354 121 154.366531 C 125.675003 153.19313 135.800003 149.859177 143.5 146.957733 C 151.199997 144.05629 158.850006 141.652191 160.5 141.615265 C 162.480515 141.570953 170.241562 145.136383 183.338089 152.107071 C 194.249039 157.914474 203.172974 163.035294 203.169052 163.486679 C 203.165131 163.938065 193.787979 169.257339 182.330963 175.307266 C 161.5 186.307159 161.5 186.307159 154 183.576523 C 149.875 182.074677 141.340851 179.078796 135.035217 176.919037 C 128.729568 174.759277 120.31105 172.318939 116.327362 171.496094 C 112.343689 170.673248 105.802841 170.007813 101.79216 170.017365 C 97.781464 170.026917 91.352707 170.701385 87.506012 171.51619 C 83.659332 172.330994 76.234329 174.4104 71.00602 176.1371 C 65.77771 177.8638 58.156868 180.591705 54.070824 182.199112 C 49.984779 183.806519 45.484779 185.31012 44.070824 185.540466 Z M 137.5 0.5 L 153.5 0.5 L 153.676941 40.5 C 153.774261 62.5 154.308716 83.38446 154.864624 86.909897 C 155.519577 91.063492 156.611084 94.055527 157.965454 95.409897 C 159.534714 96.979156 161.316193 97.5 165.114365 97.5 C 169.384537 97.5 170.539413 97.074219 172.522507 94.768738 C 173.814636 93.266541 175.14003 90.116547 175.467804 87.768738 C 175.795593 85.420929 176.161926 64.824997 176.281891 42 L 176.5 0.5 L 184.5 0.5 L 192.5 0.5 L 192.760666 44.457413 C 192.979584 81.375336 192.77803 89.25174 191.50206 93.6409 C 190.666458 96.515259 188.805054 100.266647 187.365601 101.977341 C 185.926147 103.688034 182.892517 106.056107 180.624207 107.239716 C 177.381302 108.931854 174.363113 109.459061 166.5 109.706894 C 159.518097 109.926941 155.310211 109.581635 152.557831 108.562805 C 150.389633 107.760208 147.46463 106.251373 146.057831 105.209824 C 144.651016 104.168274 142.513641 101.867233 141.30809 100.096375 C 140.102539 98.325516 138.633347 94.541901 138.043213 91.688324 C 137.35025 88.337509 137.064056 71.271057 137.235123 43.5 L 137.5 0.5 Z M 10.5 0.5 C 41.609222 0.009888 46.505798 0.295837 50.87854 1.567017 C 54.604515 2.650177 57.514282 4.325836 59.707596 6.651428 C 61.595139 8.652802 63.723808 12.527222 64.73954 15.81012 C 66.269638 20.755463 66.5 25.818085 66.5 54.5 C 66.5 83.1819 66.269638 88.244537 64.73954 93.189896 C 63.727234 96.461716 61.595551 100.346741 59.723534 102.331665 C 57.597229 104.586197 54.589546 106.341385 51.052498 107.391769 C 46.985542 108.599518 41.316589 109 28.287117 109 C 15.329102 109 10.81609 108.683578 10.458675 107.75 C 10.195469 107.0625 10.097092 82.649994 10.240059 53.5 L 10.5 0.5 Z M 92 14.077881 C 74.5 13.5 74.5 13.5 74.5 7 L 74.5 0.5 L 101.430679 0.233337 C 122.30928 0.026581 128.542038 0.251312 129.165359 1.233337 C 129.607574 1.929993 129.976273 4.547485 129.98468 7.049988 C 129.993103 9.55249 129.460007 12.140015 128.800003 12.799988 C 128.059662 13.540344 124.424393 14 119.309799 14 L 111.019577 14 L 110.759796 61.25 L 110.5 108.5 L 101.952637 108.78598 C 97.251602 108.943268 93.089096 108.755768 92.702637 108.369308 C 92.316193 107.982849 92 86.609192 92 60.872269 L 92 14.077881 Z M 27 13 L 27 96 L 34.57692 96 C 41.561165 96 42.375206 95.778641 44.983711 93.170135 C 47.107841 91.046005 47.980644 88.988556 48.483505 84.920135 C 48.851967 81.939056 49.006409 66.225006 48.826714 50 C 48.570877 26.899689 48.19339 19.957642 47.086655 18 C 46.309319 16.625 44.95932 14.951813 44.086655 14.281799 C 43.163612 13.57312 39.258575 13.050293 34.75 13.031799 L 27 13 Z"/>
</svg>
