<?xml version="1.0" encoding="UTF-8"?>
<!-- Generated by Pixelmator Pro 3.8 -->
<svg width="1200" height="372" viewBox="0 0 1200 372" xmlns="http://www.w3.org/2000/svg">
    <path id="Shape" fill="#ffffff" fill-rule="evenodd" stroke="none" d="M 38.554695 371.62088 C 34.674614 371.783386 29.80551 371.490753 27.734467 370.970581 C 25.663425 370.450409 22.080473 369.061371 19.772352 367.88385 C 17.464233 366.70636 13.271694 363.382935 10.455602 360.498535 C 7.286661 357.252716 4.414072 353.014465 2.917716 349.377075 C 0.998282 344.711243 0.505958 341.748169 0.528911 335 C 0.552899 327.947327 1.009245 325.526367 3.208967 320.781921 C 4.667097 317.636993 7.904186 312.878601 10.402497 310.207703 C 12.900809 307.536804 17.544785 304.068726 20.722441 302.500885 C 25.233629 300.275055 28.307238 299.551544 34.745155 299.199982 C 42.990311 298.749695 42.990311 298.749695 43.928093 295.124847 C 44.443874 293.131195 55.260597 245.715775 67.965263 189.757278 C 80.669922 133.798782 93.862602 75.562592 97.282326 60.343536 C 102.51593 37.052002 103.262596 32.593842 102 32.175537 C 101.175003 31.902191 99.07782 30.2612 97.3396 28.52887 C 95.601379 26.796539 93.671532 23.493866 93.051056 21.189606 C 92.232132 18.148376 92.219109 15.899994 93.003532 12.986877 C 93.597878 10.779663 95.437714 7.432129 97.092064 5.547913 C 98.746414 3.663727 101.704941 1.592407 103.66658 0.945038 C 105.628212 0.297638 108.968071 0.000641 111.088493 0.285034 C 113.208916 0.569458 116.499519 1.763641 118.400948 2.938782 C 120.424232 4.18924 122.767776 6.954559 124.051384 9.60614 C 125.672791 12.955536 126.114861 15.288605 125.746803 18.554016 C 125.472969 20.983429 124.405418 24.165771 123.374466 25.625854 C 122.343506 27.085907 121.112411 28.797119 120.638695 29.428497 C 120.083656 30.168274 138.155014 60.78775 171.459885 115.538239 C 199.885269 162.267212 223.725098 200.949997 224.437271 201.5 C 225.14946 202.050003 252.809082 210.79483 285.903076 220.932953 C 346.074005 239.365906 346.074005 239.365906 349.212219 235.558716 C 350.938232 233.464767 353.832123 231.132446 355.643097 230.375763 C 357.454071 229.619095 360.383148 229 362.152161 229 C 363.921173 229 367.293671 229.931931 369.646576 231.070953 C 372.064392 232.241409 374.853638 234.645157 376.061218 236.599045 C 377.236359 238.500488 378.430542 241.791092 378.714966 243.911514 C 378.999359 246.031921 378.702362 249.371796 378.054962 251.33342 C 377.407593 253.295059 375.336273 256.253601 373.452087 257.907928 C 371.567871 259.562286 368.213379 261.403992 365.99762 262.000641 C 363.210297 262.75119 360.835632 262.772522 358.29071 262.069824 C 356.26767 261.51123 354.528442 261.15451 354.425751 261.2771 C 354.323059 261.399689 345.18103 275.155029 334.110168 291.844513 C 313.981262 322.189026 313.981262 322.189026 316.450836 325.123962 C 317.809113 326.738159 319.218109 329.645782 319.58197 331.585327 C 319.945831 333.524872 319.98526 336.70343 319.669556 338.648834 C 319.353851 340.594238 317.974457 343.655762 316.604218 345.45224 C 315.234009 347.248718 312.556976 349.456879 310.655304 350.359283 C 308.753662 351.261658 305.563782 352 303.566742 352 C 301.569702 352 298.466705 351.3862 296.671204 350.635986 C 294.875671 349.885773 292.166321 347.797943 290.650391 345.996338 C 289.13446 344.194763 287.636719 341.433594 287.322083 339.860382 C 286.75 337 286.75 337 233.125 337.014679 C 179.5 337.029358 179.5 337.029358 177 342.23288 C 175.203323 345.972504 173.374695 348.0737 170.5 349.701752 C 168.300003 350.947693 164.79805 351.974487 162.71788 351.983551 C 160.637711 351.992584 157.487717 351.380432 155.71788 350.623169 C 153.948044 349.865906 151.241119 347.906464 149.702484 346.268829 C 148.163834 344.631226 146.55658 341.988312 146.130783 340.395691 C 145.356613 337.5 145.356613 337.5 109.315918 337.237671 C 73.27523 336.975342 73.27523 336.975342 72.652199 341.520844 C 72.309532 344.020844 70.818512 348.538818 69.338829 351.56073 C 67.859138 354.582642 64.463203 359.099182 61.792309 361.597504 C 59.12141 364.095825 54.387615 367.306641 51.272762 368.732666 C 47.267323 370.566406 43.544155 371.411926 38.554695 371.62088 Z M 38.207844 351.707031 C 41.326355 351.438538 44.111847 350.389343 46.458897 348.599152 C 48.407658 347.112762 50.718166 344.511902 51.593353 342.819458 C 52.468544 341.127045 53.212795 337.877747 53.247246 335.598816 C 53.2817 333.319885 52.509682 329.768982 51.531658 327.707947 C 50.553631 325.646912 48.424484 323.014313 46.800217 321.857727 C 45.175953 320.701172 42.193932 319.377563 40.173504 318.916382 C 37.996944 318.419586 34.966534 318.486694 32.73687 319.081024 C 30.667149 319.632751 27.432123 321.437714 25.547926 323.092072 C 23.663729 324.746399 21.592422 327.704956 20.945024 329.666565 C 20.297626 331.628204 20.000635 334.968079 20.285044 337.088501 C 20.569452 339.208923 21.757668 342.489868 22.925524 344.379486 C 24.09338 346.269135 26.950396 348.782074 29.274448 349.963806 C 32.365738 351.535645 34.763721 352.003601 38.207844 351.707031 Z M 445.799652 339.996277 C 442.391541 339.993866 439.42926 339.331116 437.5 338.139435 C 435.850006 337.120239 433.651154 335.331238 432.613708 334.163818 C 430.756348 332.073883 430.764008 332.011078 433.113708 330.069977 C 434.973145 328.533875 435.720795 328.373871 436.5 329.345215 C 437.049988 330.030823 438.61264 331.358643 439.972504 332.295898 C 441.332397 333.233154 443.819763 334 445.5 334 C 447.180237 334 449.555115 333.2995 450.777496 332.443298 C 451.999878 331.587097 453 329.856842 453 328.598267 C 453 327.339722 452.212494 325.649658 451.25 324.842621 C 450.287506 324.035553 447.479095 322.503326 445.009094 321.437622 C 442.539124 320.371948 439.083221 318.243652 437.329346 316.708099 C 435.57547 315.172546 433.858368 312.631653 433.51355 311.061676 C 433.14566 309.386749 433.507019 306.72226 434.388 304.61377 C 435.38974 302.216309 437.102051 300.442108 439.532928 299.282898 C 441.536835 298.327301 444.897034 297.545471 447 297.545471 C 449.102966 297.545471 452.452148 298.322052 454.442627 299.27124 C 456.433075 300.220428 458.327332 301.689453 458.6521 302.535767 C 458.976868 303.38208 458.454987 304.944763 457.492371 306.008423 C 455.762604 307.9198 455.712952 307.919373 453.236237 305.971191 C 451.738831 304.793335 449.19754 304 446.921844 304 C 444.177277 304 442.699341 304.591187 441.631104 306.116272 C 440.521545 307.700378 440.40625 308.797485 441.172516 310.479279 C 441.764343 311.778229 444.791412 313.943939 448.348114 315.613037 C 451.731659 317.200867 455.737488 319.702881 457.25 321.173065 C 459.419708 323.282104 460 324.764984 460 328.200562 C 460 330.59549 459.297668 333.557678 458.439301 334.783203 C 457.580902 336.008728 455.578247 337.683838 453.988953 338.505707 C 452.399658 339.327576 448.714478 339.998322 445.799652 339.996277 Z M 486.248596 318.459045 C 493.182251 304.540771 495.763123 299.904266 496.457184 299.176147 C 497.151245 298.448059 499.12265 297.998047 500.838135 298.176147 C 503.957153 298.5 503.957153 298.5 497.287903 310.5 C 490.862457 322.06134 490.598206 322.810699 490.059326 331 C 489.5 339.5 489.5 339.5 486.25 339.813354 C 483 340.126709 483 340.126709 483 332.463806 C 483 324.908936 482.906647 324.629517 476.381348 312.650421 C 472.741089 305.967712 469.542938 299.9375 469.274353 299.25 C 468.938812 298.391144 469.911835 298 472.383881 298 C 475.945374 298 476.033691 298.103516 481.115173 308.229523 L 486.248596 318.459045 Z M 517 340.256897 L 517 297.784149 L 528.325439 298.143677 C 538.617188 298.470367 540.020813 298.748016 543.704285 301.185608 C 546.145203 302.800903 548.601563 305.611145 549.878845 308.249756 C 551.331909 311.251373 552 314.558777 552 318.75061 C 552 322.11618 551.521362 326.136597 550.936401 327.684906 C 550.351379 329.233215 548.663879 331.777679 547.186401 333.339264 C 545.708862 334.900879 543.150024 336.890808 541.5 337.761322 C 539.518372 338.806793 534.85083 339.499023 527.75 339.800476 L 517 340.256897 Z M 572.5 339.956238 C 569.75 339.936249 566.338867 339.288605 564.919739 338.516968 C 563.50061 337.745331 561.814697 336.481659 561.173279 335.708801 C 560.259888 334.608185 560.420105 333.929749 561.912598 332.579102 C 563.667419 330.990997 564.058716 330.979004 566.859436 332.427307 C 568.532104 333.292297 571.160522 333.985687 572.700317 333.968201 C 574.240173 333.950714 576.269836 333.351532 577.210693 332.636688 C 578.15155 331.921875 579.389038 330.106873 579.960693 328.603394 C 580.532288 327.099915 581 319.599091 581 311.934906 C 581 298 581 298 584 298 C 587 298 587 298 587 314.049652 C 587 326.583801 586.660828 330.755249 585.451477 333.093872 C 584.599731 334.740906 582.46228 336.966858 580.701477 338.040497 C 578.619202 339.31012 575.752075 339.979828 572.5 339.956238 Z M 617 340 C 614 340 614 340 614 332.700195 C 614 325.624451 613.802124 325.033539 607.553284 313.450195 C 604.007629 306.877594 600.809448 300.712494 600.446289 299.75 C 599.895203 298.289398 600.369019 298 603.311646 298 C 606.759033 298 606.944397 298.210632 611.66864 307.495422 C 614.325867 312.717896 616.767639 316.99292 617.094727 316.995422 C 617.421875 316.997955 619.896851 312.73053 622.594727 307.512268 C 627.480713 298.06189 627.514954 298.024475 631.29895 298.012268 C 635.0979 298 635.0979 298 631.626892 304.25 C 629.717896 307.6875 626.327209 313.875 624.092041 318 C 620.411011 324.793365 620.026794 326.183075 620.014038 332.75 C 620 340 620 340 617 340 Z M 654 333 C 676 333 676 333 676 336.5 C 676 340 676 340 662.166687 340 C 654.55835 340 648.033325 339.700012 647.666687 339.333344 C 647.299988 338.966675 647 329.516663 647 318.333344 C 647 298 647 298 650.5 298 C 654 298 654 298 654 315.5 L 654 333 Z M 689 340.054901 C 689 298 689 298 692 298 C 695 298 695 298 695 315.467255 L 695 332.934509 L 706.25 333.217255 C 717.5 333.5 717.5 333.5 717.5 336.5 C 717.5 339.5 717.5 339.5 703.25 339.777466 L 689 340.054901 Z M 728.896057 340 C 726.175781 340 725.829407 339.705963 726.245605 337.75 C 726.508911 336.512512 728.856934 330.325012 731.463318 324 C 734.069763 317.674988 737.55896 309.213043 739.217102 305.195648 C 741.757446 299.040741 742.567749 297.939178 744.365967 298.195648 C 746.128113 298.44696 747.923096 301.985291 754.666382 318.5 C 759.157837 329.5 762.870361 338.837494 762.916382 339.25 C 762.962341 339.662506 761.477295 340 759.61615 340 C 756.451721 340 756.087524 339.643311 754 334.5 C 751.7677 329 751.7677 329 744.328857 329 C 736.889954 329 736.889954 329 734.457581 334.5 C 732.256653 339.476685 731.727478 340 728.896057 340 Z M 802.5 325.445404 C 803.056458 298 803.056458 298 806.528198 298 C 810 298 810 298 810 319 C 810 338.752991 809.89032 340 808.153137 340 C 807.020996 340 801.614014 334.568848 794.18158 325.965912 L 782.056885 311.931824 L 781.778442 325.715912 C 781.5 339.5 781.5 339.5 778.962585 339.795898 C 777.567017 339.958649 776.104492 339.771149 775.712585 339.379242 C 775.320679 338.987335 775 329.516663 775 318.333344 C 775 299.518829 775.13269 298 776.776611 298 C 777.810791 298 783.556885 303.73468 790.526611 311.722687 L 802.5 325.445404 Z M 827 340.256897 L 827 297.784149 L 838.325439 298.143677 C 848.767151 298.475128 849.983521 298.723328 853.913818 301.32428 C 856.771973 303.215698 858.840576 305.646088 860.191284 308.699493 C 861.764221 312.255463 862.125977 314.834595 861.841553 320.466644 C 861.556702 326.107422 860.938599 328.465851 859.005859 331.28653 C 857.646545 333.270325 854.742981 335.900208 852.553589 337.130737 C 849.316528 338.950073 846.557617 339.451111 837.786377 339.8125 L 827 340.256897 Z M 109.575073 333 C 145.75 333 145.75 333 146.362976 329.935089 C 146.700119 328.24939 148.218872 325.657349 149.737976 324.174957 C 151.257095 322.692566 153.540466 320.809265 154.812149 319.989868 C 157.124298 318.5 157.124298 318.5 144.60112 255.622314 C 137.713379 221.039566 131.947906 192.639694 131.788971 192.511459 C 131.630035 192.38324 129.689697 192.001724 127.477104 191.663651 C 123.454208 191.048996 123.454208 191.048996 90.217812 247.774506 C 56.981411 304.5 56.981411 304.5 60.427906 307.5 C 62.323479 309.149994 65.465683 312.889923 67.410583 315.810944 C 69.519684 318.978577 71.441818 323.518677 72.173462 327.060944 C 73.400154 333 73.400154 333 109.575073 333 Z M 257.085083 295.130798 C 196.181641 322.315338 178.342438 330.355957 178.149872 330.537292 C 177.957291 330.718597 178.096344 331.346863 178.458878 331.933472 C 178.912506 332.66745 195.8871 333 232.898956 333 C 286.679871 333 286.679871 333 287.962524 329.113586 C 289.245148 325.227142 289.245148 325.227142 281.872589 318.302704 C 277.817657 314.494263 270.581635 307.722565 265.792542 303.254517 L 257.085083 295.130798 Z M 530.035156 333 C 534.88623 333 537.85144 332.48822 539.586304 331.351501 C 540.970032 330.444824 542.754211 328.442169 543.551086 326.901154 C 544.348022 325.360138 544.998291 321.714478 544.996277 318.799652 C 544.993774 315.249542 544.326294 312.407227 542.974365 310.189819 C 541.86438 308.369232 539.405518 306.23172 537.510193 305.439819 C 535.614929 304.647919 531.574768 304 528.532104 304 C 523 304 523 304 523 318.5 C 523 333 523 333 530.035156 333 Z M 840.277466 333 C 845.253723 333 848.259583 332.50647 849.783203 331.439301 C 851.008728 330.580902 852.683838 328.578247 853.505737 326.988953 C 854.327576 325.399658 854.998291 321.714478 854.996277 318.799652 C 854.993774 315.249542 854.326294 312.407227 852.974365 310.189819 C 851.86438 308.369232 849.405518 306.23172 847.510193 305.439819 C 845.614929 304.647919 841.574768 304 838.532104 304 C 833 304 833 304 833 318.5 C 833 333 833 333 840.277466 333 Z M 254.041214 292.5 C 237.346771 276.899994 212.054825 253.410889 187.066299 230.237457 C 141.632584 188.103958 141.632584 188.103958 138.769485 189.795242 C 136.150269 191.342453 135.96257 191.827789 136.565826 195.493256 C 136.928528 197.69696 142.121475 224.024994 148.105728 254 C 154.089981 283.975006 159.471207 310.862488 160.063995 313.75 C 161.091522 318.755127 161.290085 319.000183 164.320892 319.003723 C 166.069397 319.005798 168.949692 319.891388 170.721542 320.971741 C 172.493378 322.052063 174.492783 323.816223 175.164658 324.892059 C 176.227371 326.593719 176.75029 326.695435 179.185211 325.674072 C 180.72464 325.02832 198.197006 317.299988 218.012695 308.5 L 254.041214 292.5 Z M 744.282471 323 C 749.778931 323 749.778931 323 747.165344 316.024109 C 745.727905 312.187347 744.277039 309.374847 743.941162 309.774109 C 743.605347 310.17334 742.558777 312.628937 741.61554 315.230988 C 740.672241 317.833038 739.649719 320.645538 739.343262 321.480988 C 738.887634 322.723022 739.788269 323 744.282471 323 Z M 291.84375 321.489563 C 292.046204 321.28714 287.798828 313.865295 282.405151 304.996613 C 275.429993 293.527466 272.151184 288.990356 271.049255 289.282593 C 270.197174 289.508606 267.534332 290.553528 265.131836 291.604706 C 260.763672 293.51593 260.763672 293.51593 276.11969 307.686768 C 284.565491 315.480743 291.641327 321.692017 291.84375 321.489563 Z M 303.573883 319.391235 C 311.5 319.28244 311.5 319.28244 331.404266 289.073273 C 351.195587 259.035461 351.297363 258.852905 349.34201 256.897552 C 347.386627 254.942169 347.177643 255.019058 312.505981 270.447266 C 293.327759 278.981201 277.289459 286.310516 276.865326 286.73465 C 276.441193 287.158783 279.33548 292.778198 283.297089 299.222229 C 287.258698 305.66626 291.658234 312.864929 293.073883 315.219299 C 295.647736 319.5 295.647736 319.5 303.573883 319.391235 Z M 55.14204 300.097229 C 56.045162 298.668762 64.480453 284.336212 73.887123 268.247131 C 83.2938 252.158051 97.557747 227.768448 105.584793 214.048019 C 120.179413 189.101776 120.179413 189.101776 117.438866 185.508728 C 115.575768 183.066086 114.542671 180.295914 114.212204 176.856644 C 113.884033 173.441299 114.237625 170.724915 115.300507 168.496017 C 116.166435 166.680145 117.915565 164.207474 119.187462 163.00119 C 120.459358 161.794907 122.569824 160.390503 123.87738 159.880295 C 125.982803 159.058762 126.199547 158.469162 125.772057 154.726318 C 125.506569 152.40184 121.755745 124.287506 117.43689 92.25 C 111.996559 51.893311 109.215012 34 108.381805 34 C 107.686195 34 106.312103 37.797485 105.122505 43.007477 C 103.991341 47.961578 90.643997 106.799103 75.461739 173.757477 C 60.27948 240.715866 47.620708 296.493286 47.331131 297.707275 C 46.90654 299.487305 47.452614 300.183594 50.152317 301.304504 C 53.355965 302.634674 53.570648 302.582733 55.14204 300.097229 Z M 221.655563 205.211746 C 150.601593 183.305038 146.370148 182.213837 145.310333 183.62886 C 144.311874 184.961945 145.067169 186.092636 150.009445 190.663498 C 153.24826 193.658951 178.533615 217.222809 206.199112 243.027649 C 251.122406 284.929626 256.792389 289.89798 259.234924 289.500793 C 260.739136 289.256165 263.791992 288.126434 266.019104 286.990265 C 270.068329 284.9245 270.068329 284.9245 267.78418 281.096161 C 266.527863 278.99057 255.634995 261.055206 243.577774 241.239792 L 221.655563 205.211746 Z M 275.106201 282.682495 C 276.000763 282.448547 292.3237 275.336792 311.379425 266.878571 C 346.026184 251.5 346.026184 251.5 345.398834 247.5 C 345.053802 245.300003 344.614563 243.329132 344.422729 243.1203 C 344.230896 242.911453 318.069794 234.748428 286.286957 224.980225 C 254.504135 215.212021 228.332794 207.375092 228.128433 207.564819 C 227.924072 207.754562 238.044525 224.829346 250.618317 245.508789 C 267.840851 273.833801 273.88092 283.002899 275.106201 282.682495 Z M 781.297058 227 C 736 227 736 227 736 230.098877 C 736 231.803253 736.682251 234.635529 737.516174 236.392807 C 738.350037 238.150101 740.33197 240.355606 741.920471 241.29393 C 743.828247 242.420898 746.962524 242.998734 751.154297 242.996262 C 755.819885 242.993515 758.426636 242.436188 761 240.891266 C 762.924988 239.73558 765.445679 237.921585 766.601501 236.860184 C 768.700439 234.932755 768.708496 234.937408 773.101501 240.601395 C 775.520691 243.720459 777.628601 246.798309 777.785706 247.44104 C 777.942871 248.083771 775.983154 250.10936 773.430725 251.942352 C 770.878357 253.77536 766.097168 256.11319 762.805908 257.137543 C 759.095459 258.292358 753.911072 258.98761 749.160889 258.967346 C 744.414978 258.947144 739.485229 258.2388 736.204956 257.105774 C 733.292664 256.099854 729.242676 253.933228 727.204956 252.291046 C 725.167236 250.64888 722.277893 247.324097 720.78418 244.902649 C 719.290527 242.481186 717.377991 237.817963 716.53418 234.539902 C 715.690369 231.261841 715 225.618896 715 222 C 715 218.381104 715.697449 212.742599 716.549805 209.469986 C 717.402222 206.197372 719.461487 201.397537 721.125977 198.803696 C 722.790405 196.209854 726.23407 192.708679 728.778503 191.023315 C 731.322937 189.337952 735.226196 187.405731 737.452393 186.729507 C 739.678589 186.053284 744.896484 185.537827 749.047668 185.584076 C 754.999451 185.650375 757.839417 186.237686 762.47876 188.361649 C 765.7146 189.843063 770.039063 192.817947 772.088623 194.972473 C 774.138184 197.127014 776.785156 201.482574 777.970825 204.651489 C 779.181091 207.88623 780.383179 214.050461 780.711792 218.706589 L 781.297058 227 Z M 943.068481 258.909821 C 938.905823 258.860199 933.949829 258.374634 932.055115 257.830719 C 930.160461 257.286835 926.910461 255.974655 924.832947 254.91478 C 922.755432 253.854889 919.440125 251.569305 917.465637 249.835693 C 913.875671 246.683655 913.875671 246.683655 919.564697 240.934631 C 925.253723 235.185608 925.253723 235.185608 929.876831 238.495255 C 932.419617 240.315552 936.492981 242.337814 938.928894 242.989166 C 941.39386 243.648285 945.26709 243.887115 947.663513 243.527756 C 950.432983 243.112442 952.509888 242.110168 953.484619 240.718536 C 954.318054 239.52858 955 237.787781 955 236.850067 C 955 235.912369 953.881897 234.265656 952.51532 233.19072 C 950.940674 231.952087 947.584412 230.974304 943.351501 230.520996 C 939.677917 230.127594 934.677368 229.205338 932.239136 228.471512 C 929.800842 227.737701 926.119873 226.021576 924.059204 224.657898 C 921.998596 223.29422 919.501343 220.468903 918.509827 218.37941 C 917.51825 216.289917 916.495056 212.700027 916.236023 210.401855 C 915.957153 207.927292 916.448975 204.164413 917.442139 201.17421 C 918.514099 197.946793 920.485474 194.890671 922.906006 192.703888 C 924.98877 190.82225 928.899414 188.43399 931.596436 187.396622 C 935.022766 186.078705 938.910034 185.533218 944.5 185.585861 C 948.900024 185.627289 955.022522 186.406097 958.10553 187.316544 C 961.619202 188.354141 965.247009 190.376541 967.826782 192.735947 C 971.942444 196.5 971.942444 196.5 966.622742 202.336212 C 961.303101 208.172424 961.303101 208.172424 956.635803 204.882599 C 952.816467 202.190506 950.810242 201.519028 945.59375 201.186874 C 940.121033 200.838394 938.920532 201.079437 937.109497 202.890472 C 935.94928 204.05072 935 205.899994 935 207 C 935 208.100006 935.809692 209.809677 936.799316 210.799301 C 937.987976 211.988007 942.054382 213.165863 948.782104 214.270203 C 954.383057 215.18959 960.716736 216.835175 962.857056 217.927063 C 964.997314 219.018936 967.91803 221.302307 969.347595 223.001221 C 970.7771 224.700119 972.47168 227.842239 973.113281 229.983688 C 973.754883 232.125153 974.034241 235.708252 973.73407 237.946121 C 973.433899 240.18399 972.318787 243.699112 971.256104 245.757492 C 970.193359 247.815872 967.431152 250.950958 965.117798 252.724365 C 962.804443 254.497772 958.599915 256.635254 955.774353 257.474365 C 952.948792 258.313477 947.231201 258.959412 943.068481 258.909821 Z M 1064.787354 187 L 1084.84375 187 L 1085.199219 211.25 C 1085.457397 228.862823 1085.919434 236.222488 1086.887573 238.139725 C 1087.620728 239.591583 1089.317139 241.279083 1090.657349 241.889725 C 1091.997559 242.500381 1094.445313 243 1096.09668 243 C 1097.748169 243 1100.399658 242.327576 1101.989014 241.505707 C 1103.578247 240.683853 1105.580933 239.008728 1106.439331 237.783203 C 1107.749512 235.912598 1108 231.658707 1108 211.277496 L 1108 187 L 1118 187 L 1128 187 L 1128 222.5 L 1128 258 L 1118 258 C 1108 258 1108 258 1108 251.80423 C 1108 245.608429 1108 245.608429 1105.113403 250.16011 C 1103.19458 253.18573 1100.741821 255.430634 1097.797729 256.855896 C 1094.793823 258.310059 1091.458984 258.999756 1087.434326 258.999207 C 1083.412964 258.998688 1080.126831 258.318726 1077.240234 256.889893 C 1074.897339 255.730194 1072.075439 253.510269 1070.969238 251.956741 C 1069.863037 250.403214 1068.221436 247.189911 1067.321411 244.816071 C 1066.003784 241.341156 1065.597412 235.286743 1065.236084 213.75 L 1064.787354 187 Z M 1171.130371 258.684021 C 1165.83374 258.818817 1159.949829 258.459473 1158.055176 257.885468 C 1156.160522 257.311462 1152.910522 255.974655 1150.833008 254.91478 C 1148.755371 253.854889 1145.440063 251.569305 1143.465576 249.835693 C 1139.87561 246.683655 1139.87561 246.683655 1145.613281 240.885483 C 1151.350952 235.087311 1151.350952 235.087311 1155.925537 238.440887 C 1158.441528 240.285339 1162.493042 242.329712 1164.928955 242.983948 C 1167.418091 243.652466 1171.258667 243.888382 1173.697876 243.522598 C 1176.741577 243.066162 1178.513184 242.146362 1179.62915 240.443176 C 1180.575928 238.99826 1180.978394 237.050293 1180.622925 235.633881 C 1180.284302 234.284424 1178.828735 232.785538 1177.262695 232.173615 C 1175.743164 231.579849 1171.800049 230.787064 1168.5 230.41185 C 1165.199951 230.036636 1160.551147 229.148575 1158.169189 228.438385 C 1155.787354 227.728195 1152.323853 226.109253 1150.472534 224.840744 C 1148.621216 223.57222 1146.220947 220.95163 1145.13855 219.017181 C 1144.056152 217.082733 1142.859375 213.824661 1142.479126 211.777023 C 1142.096313 209.716415 1142.31665 205.848755 1142.972412 203.115204 C 1143.66748 200.217682 1145.553345 196.545288 1147.535034 194.230042 C 1149.454224 191.98793 1153.198975 189.277908 1156.206543 187.954636 C 1160.474854 186.076614 1163.243774 185.62738 1170.50415 185.634979 C 1176.251221 185.641006 1181.272339 186.245544 1184.385498 187.306274 C 1187.067993 188.220306 1191.214722 190.437805 1193.600464 192.23407 C 1195.986206 194.030334 1197.952026 195.764648 1197.969116 196.088104 C 1197.986084 196.411575 1195.572632 199.336578 1192.605835 202.588104 C 1187.211548 208.5 1187.211548 208.5 1184.842163 206.297729 C 1183.53894 205.086472 1180.805786 203.398972 1178.768433 202.547729 C 1176.731201 201.696472 1172.885742 201 1170.223267 201 C 1167.560669 201 1164.546265 201.611298 1163.524414 202.358459 C 1162.367188 203.204697 1161.666626 204.954819 1161.666626 207 C 1161.666626 208.957092 1162.364868 210.793579 1163.395264 211.547043 C 1164.345947 212.242218 1169.033447 213.353683 1173.81189 214.016968 C 1178.590332 214.680252 1184.633789 216.126572 1187.241699 217.231018 C 1189.849487 218.335464 1193.513672 220.933044 1195.384155 223.003418 C 1197.559937 225.411774 1199.040405 228.279404 1199.494019 230.964294 C 1199.883911 233.272385 1199.904541 237.151108 1199.539673 239.583649 C 1199.138916 242.256775 1197.598267 245.682388 1195.645264 248.242844 C 1193.665527 250.83847 1190.157471 253.633316 1186.587524 255.459076 C 1181.479858 258.071198 1179.57251 258.469177 1171.130371 258.684021 Z M 435 258.028076 L 435 164 L 467 164 L 499 164 L 499 173 L 499 182 L 477 182 L 455 182 L 455 191.5 L 455 201 L 473.5 201 L 492 201 L 492 210 L 492 219 L 473.5 219 L 455 219 L 455 228.980499 L 455 238.960999 L 476.75 239.230499 L 498.5 239.5 L 498.5 248.5 L 498.5 257.5 L 466.75 257.764038 L 435 258.028076 Z M 515 258.072418 L 515 187 L 525 187 C 535 187 535 187 535.039124 194.25 C 535.078308 201.5 535.078308 201.5 536.592957 198.007141 C 537.426086 196.08606 539.095947 193.440567 540.303833 192.128265 C 541.511719 190.815948 543.948059 189.125244 545.717896 188.371124 C 547.487732 187.617004 550.76709 187 553.005432 187 C 557.075073 187 557.075073 187 556.787537 196.25 C 556.5 205.5 556.5 205.5 548.235168 206.037582 C 541.186951 206.496033 539.6073 206.938141 537.504578 209.040909 C 535.044006 211.501419 535.038269 211.555298 534.769409 234.503326 L 534.5 257.5 L 524.75 257.786194 L 515 258.072418 Z M 568 158 L 587.959412 158 L 588.229736 178.75 C 588.451416 195.768463 588.713928 199.022308 589.689636 196.843719 C 590.343933 195.382751 592.459167 192.607513 594.390198 190.676498 C 596.907898 188.158768 599.434753 186.822357 603.322449 185.952316 C 607.634766 184.987259 609.844055 185.001068 614.121948 186.019791 C 617.929932 186.92662 620.547607 188.351395 623.088501 190.900253 C 625.062195 192.880112 627.53717 196.75 628.588501 199.5 C 630.296631 203.968018 630.5 207.319519 630.5 231 L 630.5 257.5 L 620.81366 257.785461 L 611.127319 258.070892 L 610.81366 233.106232 C 610.517883 209.563614 610.380249 207.980896 608.398193 205.320786 C 606.587097 202.890182 605.508362 202.458313 600.599548 202.198639 C 595.259949 201.916183 594.686279 202.113724 591.451355 205.348648 C 588 208.800003 588 208.800003 588 233.399994 L 588 258 L 578.666687 258 C 573.533325 258 569.033325 257.700012 568.666687 257.333344 C 568.299988 256.966675 568 234.46666 568 207.333328 L 568 158 Z M 674.490051 258 C 666.144592 258 662.817444 257.652954 662.505737 256.75 C 662.268433 256.0625 657.267395 240.875 651.392334 223 C 645.517273 205.125 640.493652 189.695511 640.228699 188.712265 C 639.786255 187.070145 640.548218 186.947968 649.583557 187.212265 C 659.420105 187.5 659.420105 187.5 662.739746 198 C 664.565552 203.774994 667.887512 215.475006 670.121887 224 C 672.356262 232.524994 674.517883 239.852509 674.925537 240.283356 C 675.333191 240.714188 677.338379 234.639191 679.381592 226.783356 C 681.424744 218.927505 684.795837 206.875 686.872925 200 C 690.649353 187.5 690.649353 187.5 699.942932 187.210907 C 709.23645 186.921814 709.23645 186.921814 708.561462 189.710907 C 708.190186 191.244904 703.386536 206.225006 697.886597 223 C 692.386658 239.774994 687.471863 254.512497 686.964844 255.75 C 686.08374 257.900299 685.530945 258 674.490051 258 Z M 794 187 C 814 187 814 187 814.081604 194.75 C 814.163147 202.5 814.163147 202.5 815.666626 199 C 816.49353 197.074997 818.369324 194.207077 819.835022 192.626846 C 821.300781 191.0466 823.948059 189.134094 825.717896 188.376846 C 827.487732 187.619583 830.525208 187 832.467896 187 C 836 187 836 187 836 196.5 C 836 206 836 206 829.467896 206 C 825.875244 206 821.436096 206.626587 819.60321 207.392426 C 817.344238 208.336288 815.904907 209.834061 815.135315 212.041656 C 814.425354 214.078232 814 223.297852 814 236.649216 L 814 258 L 804.666687 258 C 799.533325 258 795.033325 257.700012 794.666687 257.333344 C 794.299988 256.966675 794 240.991669 794 221.833328 L 794 187 Z M 863.145813 258 C 845.957214 205.360031 840.701233 189.385025 840.376465 188.538727 C 839.869385 187.217285 841.191345 187 849.738403 187 C 859.690735 187 859.690735 187 863.404053 199.25 C 865.446411 205.987503 868.243286 215.774994 869.619324 221 C 870.995361 226.225006 872.824524 232.975006 873.684143 236 C 874.971558 240.53067 875.394104 241.147507 876.081482 239.5 C 876.540466 238.399994 878.50647 231.425003 880.450439 224 C 882.394348 216.574997 885.507141 205.418655 887.367676 199.208115 C 889.228149 192.997589 890.974243 187.692444 891.247742 187.4189 C 891.521301 187.14537 895.782898 187.051727 900.718018 187.210785 L 909.690918 187.5 L 898.160706 222.75 L 886.630554 258 L 874.888184 258 L 863.145813 258 Z M 987 258.072418 L 987 158 L 997 158 L 1007 158 L 1007.044189 178.75 C 1007.088379 199.5 1007.088379 199.5 1009.005981 195.871048 C 1010.060669 193.875122 1012.325439 191.062485 1014.038879 189.620758 C 1015.752258 188.179016 1018.356934 186.668396 1019.827087 186.263824 C 1021.29718 185.859253 1024.81543 185.5448 1027.645264 185.565033 C 1030.47522 185.585266 1034.682251 186.454849 1036.994263 187.497421 C 1039.306274 188.540009 1042.232178 190.767105 1043.496216 192.446518 C 1044.760254 194.125931 1046.515625 197.653229 1047.397217 200.284943 C 1048.706909 204.194916 1049 209.915894 1049 231.571152 L 1049 258.072418 L 1039.25 257.786194 L 1029.5 257.5 L 1029 231.659958 C 1028.503296 205.988297 1028.484619 205.80748 1026.13916 203.909958 C 1024.571899 202.641922 1022.219238 202.001251 1019.139221 202.003738 C 1016.293091 202.006027 1013.254211 202.767059 1011.276855 203.972717 C 1009.504089 205.053604 1007.811035 206.964417 1007.514526 208.218979 C 1007.217957 209.473541 1006.868408 221.074997 1006.737671 234 L 1006.5 257.5 L 996.75 257.786194 L 987 258.072418 Z M 748 216 C 760 216 760 216 759.996277 212.25 C 759.994202 210.1875 759.093994 207.026291 757.995789 205.225067 C 756.897583 203.423859 754.844971 201.511368 753.434448 200.975067 C 752.023865 200.438782 749.729614 200 748.33606 200 C 746.942444 200 744.364502 200.682266 742.607178 201.516159 C 740.849915 202.350052 738.644409 204.33197 737.706055 205.920456 C 736.7677 207.508926 736 210.426651 736 212.404297 C 736 216 736 216 748 216 Z M 217.25 199.902069 C 217.662506 199.955933 218 199.81955 218 199.598984 C 218 199.378433 195.45108 162.14093 167.891281 116.848984 C 140.331482 71.557037 117.268974 33.953766 116.641273 33.286163 C 116.013573 32.618561 115.00148 32.393555 114.392174 32.786163 C 113.606781 33.292236 115.411522 49.216736 120.592941 87.5 C 124.612671 117.199997 128.420624 145.215714 129.055069 149.757126 C 130.136383 157.49733 130.374237 158.048355 132.854294 158.559052 C 134.309433 158.858688 136.973129 159.832077 138.773621 160.722122 C 140.574127 161.612167 143.040497 163.947495 144.254456 165.911728 C 145.46843 167.875961 146.695297 171.499298 146.980835 173.963608 C 147.5 178.444138 147.5 178.444138 182 189.12413 C 200.975006 194.998123 216.837494 199.848206 217.25 199.902069 Z"/>
</svg>
