<?xml version="1.0" encoding="UTF-8"?>
<!-- Generated by Pixelmator Pro 3.8 -->
<svg width="2302" height="749" viewBox="0 0 2302 749" xmlns="http://www.w3.org/2000/svg">
    <path id="Shape" fill="#000000" fill-rule="evenodd" stroke="none" d="M 131.89772 655.661377 L 143.397659 644.040161 L 150.948822 651.333618 C 155.101974 655.345032 162.774994 662.02533 168 666.178711 C 173.225006 670.332092 181.774994 676.664429 187 680.25061 C 192.225006 683.836792 201.800766 689.797607 208.27948 693.496765 C 214.758194 697.195984 225.333191 702.596497 231.77948 705.497925 C 238.225769 708.399414 247.922073 712.419678 253.326843 714.431824 C 258.731598 716.44397 268.406616 719.598328 274.826843 721.441467 C 281.24707 723.284607 291.196503 725.762085 296.936676 726.94696 C 302.676819 728.131836 312.107849 729.765869 317.89447 730.578186 C 323.681122 731.390503 333.834625 732.3703 340.457825 732.755615 C 347.081024 733.14093 357.899994 733.404663 364.5 733.341797 C 371.100006 733.27887 382.350006 732.68573 389.5 732.023621 C 396.649994 731.361511 407.450012 729.936584 413.5 728.857056 C 419.549988 727.777527 429.674988 725.588745 436 723.993103 C 442.325012 722.3974 453.511017 719.031799 460.857788 716.513916 C 468.20459 713.996094 479.743347 709.445801 486.499481 706.402222 C 493.255615 703.358643 504.119598 697.904114 510.641693 694.281067 C 517.163757 690.65802 527.046021 684.647156 532.602234 680.923584 C 538.158508 677.200073 547.379883 670.406494 553.094177 665.826782 C 558.808533 661.24707 563.757507 657.372498 564.09198 657.216675 C 564.426453 657.060791 566.885498 659.491394 569.55658 662.61792 C 574.413147 668.302551 574.413147 668.302551 569.593323 672.666199 C 566.942444 675.066223 560.577515 680.183655 555.449036 684.038269 C 550.320618 687.892944 540.886658 694.39563 534.484741 698.48877 C 528.082825 702.581848 516.917236 708.949463 509.672424 712.639038 C 502.427582 716.328552 492.450012 721.10907 487.5 723.262329 C 482.549988 725.415649 472.649994 729.183167 465.5 731.634644 C 458.350006 734.086121 447.129059 737.448914 440.564575 739.107544 C 434.000092 740.766113 422.300079 743.180298 414.564575 744.472351 C 406.829071 745.764404 398.475006 747.102722 396 747.446289 C 393.524994 747.789917 380.024994 748.257568 366 748.485535 C 348.772797 748.765564 336.279083 748.4599 327.489471 747.543396 C 320.333679 746.797241 309.308685 745.260254 302.989471 744.127869 C 296.670258 742.995483 285.929077 740.666077 279.120148 738.951416 C 272.311218 737.236694 261.51123 734.03186 255.120148 731.829529 C 248.729065 729.627197 239.225006 726.009521 234 723.790222 C 228.774994 721.570984 220.101868 717.550842 214.726379 714.856628 C 209.350876 712.162415 200.379196 707.242371 194.789322 703.923218 C 189.199432 700.604004 180.455536 694.980774 175.358444 691.427002 C 170.261337 687.873291 162.133026 681.746216 157.295502 677.811279 C 152.457977 673.876404 144.764481 667.282898 140.198868 663.159119 L 131.89772 655.661377 Z M 407.11441 640.701477 C 406.776489 640.812317 404.079742 638.699829 401.121674 636.007141 C 397.692688 632.885742 395.9487 630.57605 396.309967 629.634583 C 396.621643 628.822449 399.342224 626.296387 402.355743 624.021179 C 405.369263 621.745911 409.360016 619.463257 411.224091 618.948547 C 413.605133 618.291138 416.083832 618.4198 419.556671 619.380981 C 422.275513 620.133545 427.312927 621.934448 430.750946 623.383057 C 437.001862 626.016907 437.001862 626.016907 442.658722 624.028687 C 445.769989 622.935181 451.282043 620.266418 454.907776 618.098145 C 458.533508 615.92981 464.649994 611.972656 468.5 609.304504 C 472.350006 606.636292 480.225006 600.893433 486 596.542542 C 491.774994 592.19165 500.604004 584.478149 505.619965 579.401367 C 510.635956 574.324646 519.211609 564.605957 524.677002 557.804382 C 530.142395 551.002747 538.039673 540.276733 542.22644 533.968872 C 546.413269 527.661011 552.324951 517.775024 555.363525 512 C 558.402161 506.225006 562.263367 497.383606 563.944153 492.352509 C 565.787842 486.833527 567 481.141785 567 478.003632 C 567 475.142883 566.309814 471.347778 565.466248 469.570068 C 564.622681 467.792358 559.78186 462.506104 554.708862 457.822784 C 549.225159 452.760284 544.379944 447.276703 542.759094 444.298676 C 541.259644 441.543701 539.2948 436.411987 538.3927 432.894836 C 537.267456 428.507385 536.921936 424.302673 537.292053 419.5 C 537.588745 415.649994 538.818726 408.586151 540.025391 403.802582 C 541.82373 396.673096 542.146851 393.067627 541.81781 383.802582 C 541.508423 375.089294 540.940674 371.469086 539.339478 368 C 538.197144 365.524994 534.48822 360.223083 531.097473 356.217926 C 524.932434 348.935883 524.932434 348.935883 529.592468 342.879852 C 534.252441 336.823822 534.252441 336.823822 539.19751 341.661926 C 541.917297 344.322876 546.349243 349.783417 549.046326 353.796509 C 551.743408 357.80957 554.694275 363.43457 555.603699 366.296509 C 556.691101 369.718353 557.362671 375.951141 557.565125 384.5 C 557.830627 395.709686 557.527832 398.877167 555.366516 407.5 C 553.601318 414.54245 552.962952 419.422394 553.208069 424 C 553.428833 428.123108 554.388062 432.209625 555.831055 435.175232 C 557.288452 438.170258 561.205444 442.662567 566.730225 447.675232 C 571.473511 451.978851 576.60437 457.468689 578.132202 459.874847 C 579.660034 462.281036 581.444946 466.781036 582.098755 469.874847 C 583.015747 474.214478 583.016785 477.404205 582.103149 483.832306 C 581.451843 488.415039 579.604492 495.766296 577.997925 500.168335 C 576.391357 504.570435 572.320251 513.420898 568.95105 519.83606 C 565.581787 526.251221 559.061218 537.125 554.460754 544 C 549.860352 550.875 542.142944 561.450012 537.310974 567.5 C 532.479004 573.549988 523.344849 583.723633 517.012817 590.108154 C 510.680756 596.492676 500.044037 605.80127 493.375671 610.794067 C 486.707275 615.786804 477.032288 622.664001 471.875671 626.07666 C 466.719055 629.489319 458.674988 634.105652 454 636.335205 C 447.649658 639.36377 443.906738 640.49646 439.200073 640.814148 C 434.472473 641.13324 431.602325 640.733276 427.700073 639.211731 C 424.840027 638.096497 420.827759 636.468018 418.783936 635.592773 C 415.079865 634.006653 415.05603 634.012024 411.398346 637.250732 C 409.380096 639.037842 407.452332 640.590698 407.11441 640.701477 Z M 598.976501 633.770874 C 598.645508 633.919861 595.527161 632.201294 592.046875 629.951904 C 585.718994 625.862 585.718994 625.862 590.109497 621.334839 C 592.524292 618.844971 597.565308 614.390198 601.311829 611.435486 C 605.857178 607.850708 610.016296 605.523621 613.811829 604.441528 C 616.940308 603.549561 620.614868 602.286316 621.977478 601.634216 C 623.340088 600.982117 625.445496 598.97876 626.656067 597.182373 C 627.866699 595.385925 630.073242 590.672485 631.55957 586.708069 C 633.045898 582.743652 636.64032 573.650024 639.547241 566.5 C 642.454163 559.349976 647.590027 547.200012 650.960266 539.5 C 654.330566 531.799988 658.67157 520.877563 660.606995 515.227905 C 662.542419 509.578217 664.145325 503.278229 664.169067 501.227905 C 664.192749 499.177551 662.318604 490.075012 660.004272 481 C 657.689941 471.924988 654.222412 459.549988 652.298645 453.5 C 650.374817 447.450012 647.472534 439.145905 645.849121 435.046417 C 644.225708 430.94696 641.378601 425.092529 639.522217 422.03656 C 637.665833 418.980621 634.479004 414.812347 632.440491 412.773804 C 630.401917 410.735229 627.206482 408.563202 625.339539 407.947052 C 622.202454 406.911713 621.094238 407.231384 610.722534 412.163391 C 599.5 417.5 599.5 417.5 586.5 417.5 C 579.349976 417.5 572.208496 417.140381 570.630066 416.700836 C 567.967468 415.959412 567.80426 415.634308 568.371277 412.200836 C 568.707458 410.165375 569.467041 406.778137 570.059326 404.673615 C 571.136169 400.847229 571.136169 400.847229 575.318115 401.673615 C 577.618164 402.128113 582.972046 402.439606 587.215698 402.365784 C 594.299377 402.242554 595.830444 401.806641 605.906128 397.044342 C 615.124634 392.687256 617.791992 391.857147 622.574219 391.857147 C 626.923279 391.857147 629.758179 392.591003 634.581116 394.965332 C 638.419373 396.854889 642.5271 399.921417 645.058167 402.786743 C 647.348083 405.379028 651.204773 410.875 653.628601 415 C 656.052429 419.125 659.773804 427 661.898376 432.5 C 664.022949 438 667.363831 448.125 669.32251 455 C 671.281189 461.875 674.522766 474.024994 676.52594 482 C 679.52533 493.940979 680.076721 497.6745 679.650208 503.15509 C 679.365356 506.815369 677.778015 513.852356 676.122803 518.792847 C 674.46759 523.733337 669.448792 536.26355 664.96991 546.637756 C 660.491028 557.011963 654.397156 571.799988 651.427979 579.5 C 648.458801 587.200012 644.413025 596.744385 642.437378 600.709717 C 640.461731 604.675049 637.030273 609.734375 634.812012 611.952759 C 632.382263 614.382446 629.132935 616.433167 626.639343 617.110718 C 624.362732 617.729309 620.822144 618.744995 618.771484 619.367737 C 616.720764 619.990479 611.563416 623.424988 607.310608 627 C 603.0578 630.575012 599.307434 633.621887 598.976501 633.770874 Z M 121.350586 627.291199 C 118.184746 627.56311 114.163895 627.051758 110.462196 625.906494 C 107.234253 624.907715 101.942741 622.901123 98.703285 621.447327 C 93.669785 619.188416 92.255867 618.945618 88.979164 619.777344 C 85.144951 620.750549 85.144951 620.750549 82.160812 613.423706 C 79.176682 606.096802 79.176682 606.096802 82.598206 604.96759 C 84.480049 604.346558 88.684456 603.851135 91.941338 603.866699 C 96.294312 603.887512 99.80162 604.721252 105.181473 607.013977 C 109.206665 608.729431 114.373558 610.635986 116.66346 611.250732 C 120.82692 612.36853 120.82692 612.36853 127.98394 606.434265 C 131.920303 603.17041 136.796738 599.361145 138.82048 597.969177 C 140.844208 596.577209 147.225006 593.928162 153 592.082397 C 158.774994 590.236572 168.186737 586.729492 173.914978 584.288818 C 179.643219 581.848145 189.318222 577.354553 195.414978 574.30304 C 201.511749 571.251526 211.899994 565.635498 218.5 561.823059 C 225.100006 558.01062 232.649292 553.32782 235.276215 551.416931 C 237.903122 549.505981 242.29332 544.917969 245.032211 541.221252 C 247.771103 537.524536 252.435577 529.775024 255.397736 524 C 258.359894 518.224976 262.158234 509.181915 263.838501 503.904236 C 265.518768 498.626587 267.440094 491.201599 268.108093 487.404266 C 268.776123 483.606903 269.659821 480.112793 270.071838 479.639526 C 270.483856 479.16626 274.062469 479.104584 278.024323 479.502441 C 285.227692 480.225861 285.227692 480.225861 284.577301 485.128754 C 284.219604 487.825348 282.846802 494.289551 281.526703 499.493652 C 280.206573 504.697693 277.301605 513.504089 275.071228 519.063354 C 272.840851 524.62262 268.58606 533.295105 265.61615 538.335571 C 262.64624 543.375977 258.171783 550.128601 255.672928 553.34137 C 253.174057 556.554138 248.512894 561.107178 245.314774 563.459229 C 242.116638 565.81134 235 570.417603 229.5 573.695435 C 224 576.973267 214.774994 582.158691 209 585.218628 C 203.225006 588.278503 192.649994 593.36145 185.5 596.514038 C 178.350006 599.666626 167.007553 604.069031 160.294556 606.297119 C 149.067505 610.02356 147.424194 610.9021 139.794556 617.257019 C 135.232544 621.056885 130.345749 624.771973 128.934998 625.512939 C 127.524246 626.253845 124.111259 627.054077 121.350586 627.291199 Z M 396.719818 619.487793 C 392.297668 622.864319 392.297668 622.864319 386.898834 617.353333 C 381.5 611.842285 381.5 611.842285 385.936584 607.983215 C 388.376709 605.860718 393.326691 602.762939 396.936584 601.099304 C 400.546448 599.435669 405.049561 597.945313 406.943481 597.787292 C 410.386993 597.5 410.386993 597.5 411.516815 604.849182 C 412.437134 610.835693 412.400391 612.270325 411.318665 612.586487 C 410.588257 612.799988 407.999725 613.680359 405.566315 614.542908 C 403.132935 615.405457 399.152008 617.630615 396.719818 619.487793 Z M 586.743225 616.204102 C 582.255676 620.691711 582.255676 620.691711 575.877808 618.184937 C 572.369995 616.806274 569.306824 615.519958 569.070801 615.326538 C 568.834717 615.133118 569.351746 613.485596 570.219727 611.665405 C 571.087708 609.845215 573.245361 606.908447 575.014526 605.139343 C 576.78363 603.370239 580.040161 600.999878 582.251221 599.871826 C 585.225891 598.354309 586.463074 598.131226 587.008667 599.014038 C 587.414246 599.670288 588.530151 602.796753 589.488464 605.961853 C 591.230835 611.716553 591.230835 611.716553 586.743225 616.204102 Z M 574.517761 598.901062 C 571.5 601.744202 571.5 601.744202 564.292297 599.088562 C 557.084534 596.432983 557.084534 596.432983 559.516418 592.354858 C 560.853943 590.111938 563.542419 587.060913 565.490784 585.574829 C 567.439209 584.088684 570.938354 582.036987 573.266663 581.015442 C 575.594971 579.993896 579.1875 578.847412 581.25 578.467712 C 584.995789 577.778198 585 577.781311 585 581.249146 C 585 583.158569 584.717102 586.78479 584.371338 589.307434 C 583.823792 593.302246 583.342224 594.03363 580.639099 594.975952 C 578.932129 595.571045 576.17749 597.33728 574.517761 598.901062 Z M 75.974297 599.711975 C 75.685165 599.879822 73.066193 597.604736 70.154366 594.656311 C 64.86013 589.295471 64.86013 589.295471 67.787613 586.832153 C 69.397728 585.477356 73.123962 583.332581 76.068123 582.06604 C 79.773941 580.471802 83.433441 579.748962 87.960579 579.716858 C 91.625717 579.690857 96.798943 580.434631 99.730446 581.409119 C 102.607185 582.365356 105.844841 583.901978 106.92524 584.823853 C 108.85305 586.468811 108.806091 586.61499 104.401207 592.68158 C 99.912819 598.863159 99.912819 598.863159 95.706406 596.953552 C 93.392883 595.903259 90.150002 595.043945 88.5 595.043945 C 86.849998 595.043945 83.474998 596.025574 81 597.225342 C 78.525002 598.425171 76.263435 599.544128 75.974297 599.711975 Z M 384.898682 599.783752 C 384.567993 599.939819 381.732147 597.914856 378.596832 595.283752 C 372.896271 590.5 372.896271 590.5 375.94104 587.770447 C 377.615631 586.269165 381.126495 583.96814 383.742889 582.656982 C 386.359314 581.345825 390.217651 579.716736 392.317017 579.036865 C 394.416351 578.356934 396.317596 577.984253 396.541992 578.208618 C 396.766357 578.433044 397.188751 580.390381 397.480591 582.55835 C 397.772461 584.726257 398.203979 587.953735 398.439575 589.730469 C 398.852264 592.842896 398.62384 593.080261 392.18396 596.230469 C 388.507782 598.028687 385.229401 599.627686 384.898682 599.783752 Z M 1139.5 588.611084 C 1127.727661 588.850464 1121.650391 588.527832 1116.5 587.389893 C 1112.650024 586.539307 1106.250977 584.492249 1102.279907 582.84082 C 1098.30896 581.189453 1092.274658 578.038147 1088.870605 575.837952 C 1085.466431 573.637756 1079.998901 569.286682 1076.720459 566.168823 C 1073.442017 563.050964 1068.989258 557.901123 1066.825439 554.724731 C 1064.661621 551.548401 1061.588501 546.195068 1059.996338 542.828491 C 1058.404297 539.461853 1056.29126 533.285706 1055.300781 529.103699 C 1054.088867 523.98645 1053.5 517.575928 1053.5 509.5 C 1053.5 501.269531 1054.086182 495.024719 1055.365845 489.620117 C 1056.39209 485.286194 1059.28418 477.640533 1061.79248 472.629791 C 1065.517456 465.188751 1068.015869 461.849792 1075.426636 454.408478 C 1080.864624 448.948059 1087.304688 443.655792 1091.5 441.199921 C 1095.349976 438.946167 1102.550049 435.75177 1107.5 434.101257 C 1112.449951 432.450745 1120.775024 430.580139 1126 429.944366 C 1131.389893 429.288544 1138.961182 429.080017 1143.5 429.462402 C 1147.900024 429.833099 1154.594482 430.829773 1158.376709 431.677185 C 1162.158936 432.524628 1168.330566 434.486847 1172.091553 436.03772 C 1175.852417 437.588593 1182.19873 440.972382 1186.19458 443.55722 C 1190.190308 446.142059 1195.972656 450.825256 1199.044189 453.964294 C 1202.115723 457.103363 1206.519409 462.558044 1208.829956 466.085846 C 1211.140625 469.613617 1214.380371 475.989166 1216.029419 480.253693 C 1217.678467 484.518219 1219.533569 491.268219 1220.151733 495.253693 C 1220.786987 499.348755 1221.044312 507.501038 1220.743652 514 C 1220.45105 520.325012 1219.46582 528.200012 1218.554321 531.5 C 1217.6427 534.799988 1215.361084 540.650024 1213.483887 544.5 C 1211.606567 548.349976 1207.812378 554.479492 1205.052246 558.121155 C 1202.291992 561.762756 1197.213623 567.072754 1193.766846 569.921143 C 1190.320068 572.769531 1183 577.326355 1177.5 580.047424 C 1172 582.768494 1164.800049 585.735229 1161.5 586.640259 C 1157.433716 587.755371 1150.343262 588.390564 1139.5 588.611084 Z M 1796.873901 433 L 1834.854492 433 L 1835.238403 483.75 C 1835.576904 528.490173 1835.827148 535.12262 1837.352173 539.75769 C 1838.342651 542.768066 1840.556396 546.489746 1842.53125 548.4646 C 1844.428345 550.361694 1847.897461 552.490967 1850.240234 553.19635 C 1852.58313 553.901672 1857.425049 554.409424 1861 554.324646 C 1864.863647 554.233032 1869.833008 553.295288 1873.252075 552.012634 C 1876.415771 550.825806 1881.175781 548.138184 1883.829956 546.040161 C 1886.484131 543.942139 1890.290039 539.763428 1892.287476 536.75415 C 1894.284912 533.744873 1897.173706 527.731689 1898.707031 523.391357 C 1901.494873 515.5 1901.494873 515.5 1901.807861 474.25 L 1902.12085 433 L 1921.060425 433 L 1940 433 L 1940 509.5 L 1940 586 L 1922 586 L 1904 586 L 1904 571.886047 C 1904 557.772095 1904 557.772095 1899.925537 563.873657 C 1897.68457 567.229492 1893.53186 572.004028 1890.697144 574.483765 C 1887.862427 576.963501 1882.566895 580.556335 1878.929321 582.467773 C 1875.291748 584.379272 1869.675049 586.630981 1866.447754 587.471619 C 1862.719482 588.442688 1856.371704 588.976013 1849.039917 588.934204 C 1842.248901 588.895447 1835.236694 588.262512 1832 587.396118 C 1828.974976 586.586365 1824.474976 584.953247 1822 583.767029 C 1819.525024 582.580811 1814.994873 579.110474 1811.932983 576.055115 C 1808.831543 572.960327 1805.180176 567.986023 1803.688599 564.82373 C 1802.216064 561.701843 1800.255859 556.301819 1799.33252 552.82373 C 1797.880005 547.351563 1797.60144 538.85791 1797.263916 489.75 L 1796.873901 433 Z M 2237.5 588.905945 C 2227.287842 588.868896 2221.418701 588.343384 2215.807373 586.963562 C 2211.576416 585.923218 2205.2146 583.757019 2201.670166 582.149841 C 2198.125732 580.542664 2192.573242 577.426575 2189.331543 575.225159 C 2186.089844 573.023804 2180.66748 568.261292 2177.281494 564.641846 C 2173.895752 561.022461 2169.323242 555.009888 2167.120605 551.280579 C 2164.917725 547.55127 2161.955811 541.019958 2160.538574 536.766602 C 2159.121338 532.513184 2157.460449 525.313232 2156.8479 520.766602 C 2156.2229 516.125732 2156.008789 508.306427 2156.359863 502.93869 C 2156.703857 497.679962 2157.873047 489.90683 2158.957764 485.665039 C 2160.042725 481.423248 2163.063965 473.800842 2165.671631 468.726349 C 2169.428955 461.415131 2172.186523 457.725159 2178.956543 450.949493 C 2186.081299 443.818909 2189.077637 441.630249 2197 437.769836 C 2202.225098 435.223816 2209.875 432.338287 2214 431.357544 C 2218.952393 430.180084 2225.576172 429.561737 2233.5 429.53717 C 2241.667725 429.511871 2247.671387 430.05011 2252.299561 431.222565 C 2256.039307 432.169983 2261.889404 434.282227 2265.299561 435.916412 C 2268.709717 437.550598 2274.18042 441.05426 2277.456299 443.702332 C 2280.811035 446.414063 2285.669922 451.83609 2288.581055 456.116058 C 2291.423828 460.295532 2294.748047 466.366699 2295.968262 469.607544 C 2297.188232 472.848389 2298.817627 478.499664 2299.589111 482.165894 C 2300.360596 485.832123 2301.152588 492.807129 2301.349609 497.665894 C 2301.546387 502.524658 2301.504883 508.862488 2301.25708 511.75 C 2300.806885 517 2300.806885 517 2247.928467 517 C 2195.050049 517 2195.050049 517 2195.653809 520.25 C 2195.986084 522.037476 2197.052734 525.825562 2198.024414 528.667847 C 2198.99585 531.510193 2201.161621 535.827881 2202.83667 538.262756 C 2204.511963 540.697632 2207.500732 544.110413 2209.478271 545.846741 C 2211.455811 547.583069 2215.226807 550.094727 2217.858398 551.428223 C 2220.489746 552.761658 2225.375732 554.560852 2228.71582 555.426331 C 2232.055908 556.29187 2237.423828 556.992188 2240.644287 556.982666 C 2243.86499 556.973083 2249.498535 556.329773 2253.163086 555.55304 C 2256.827881 554.776306 2263.353027 552.515076 2267.663086 550.528137 C 2271.973389 548.541199 2277.300049 545.697021 2279.5 544.207764 C 2281.699951 542.718506 2283.982666 541.369873 2284.57251 541.210876 C 2285.162354 541.051819 2288.61377 546.451843 2292.242432 553.210876 C 2295.87085 559.969849 2298.988281 566.1203 2299.169922 566.878418 C 2299.357666 567.662476 2296.481689 570.350098 2292.5 573.111572 C 2288.649902 575.781616 2281.675049 579.58551 2277 581.564636 C 2272.324951 583.543762 2264.675049 586.016602 2260 587.059875 C 2253.778809 588.448181 2247.746826 588.943115 2237.5 588.905945 Z M 431.360016 586.90979 C 429.237 586.860229 426.149994 586.417908 424.5 585.92688 C 422.850006 585.435913 419.156891 583.248047 416.29306 581.065063 C 413.42926 578.882019 409.642426 576.349304 407.877869 575.436829 C 405.917877 574.423279 402.295807 573.777771 398.568604 573.777771 C 395.185272 573.777771 390.725555 574.505676 388.556763 575.411865 C 386.405792 576.310547 384.32312 576.698059 383.928619 576.272949 C 383.534119 575.847839 381.810944 572.694702 380.099365 569.266052 C 376.987427 563.032104 376.987427 563.032104 380.731812 561.46759 C 382.791229 560.607117 386.281586 559.485901 388.488098 558.975952 C 390.694641 558.466064 395.548737 558.037903 399.274994 558.024414 C 403.537323 558.009033 408.154449 558.739685 411.724426 559.994385 C 414.845367 561.091309 420.063812 564.05835 423.320984 566.587769 C 427.359497 569.723938 429.941559 571.053162 431.439148 570.766907 C 432.646973 570.536011 435.767853 568.879761 438.374451 567.086365 C 440.981079 565.292969 444.481201 561.952393 446.152527 559.662842 C 447.823853 557.373291 453.332275 547.174988 458.393402 537 C 463.454559 526.825012 469.901764 512.875 472.72052 506 C 475.539276 499.125 478.142792 492.307404 478.506134 490.849762 C 479.120911 488.383331 478.519348 487.78186 469.833374 482.178345 C 464.700012 478.866699 457.906799 474.20932 454.737305 471.828583 C 451.567841 469.447876 446.546906 464.575012 443.579712 461 C 440.612518 457.424988 436.372589 451.125 434.157623 447 C 431.942688 442.875 429.149078 435.899994 427.949585 431.5 C 426.750092 427.100006 424.897156 420.575012 423.83194 417 C 422.766724 413.424988 420.381927 408.421112 418.53241 405.88028 C 416.52002 403.115692 413.402496 400.40509 410.769104 399.13028 C 407.906952 397.74472 404.437347 397 400.844421 397 C 395.320313 397 395.320313 397 394.057831 389.935638 C 393.363464 386.050262 393.107361 382.562744 393.488708 382.185638 C 393.870056 381.808533 397.949188 381.542389 402.553467 381.594238 C 409.834503 381.676178 411.767853 382.103455 417.397247 384.874786 C 421.481018 386.885254 425.55481 389.935486 428.435974 393.139984 C 430.947449 395.93335 434.345459 401.033234 435.987122 404.473022 C 437.628784 407.912811 439.921326 414.95108 441.081665 420.113617 C 442.242004 425.276123 444.987305 433.266479 447.182312 437.869965 C 450.311127 444.431793 452.828796 447.893677 458.836639 453.895203 C 463.499084 458.552734 470.014221 463.665588 475.474152 466.951782 C 480.409943 469.922485 486.567413 474.472168 489.157379 477.062164 C 492.388153 480.292908 494.085968 482.941376 494.565735 485.498688 C 495.016418 487.90097 494.684204 491.315216 493.631378 495.102112 C 492.732849 498.333862 489.298676 507.288086 485.999817 515.000427 C 482.700989 522.712708 476.809113 535.430176 472.906769 543.261414 C 469.004456 551.092651 463.815399 560.733032 461.37561 564.684509 C 458.935791 568.635986 454.754913 573.833191 452.084747 576.233887 C 449.414581 578.634583 444.52771 582.039063 441.224976 583.799438 C 437.246338 585.919983 433.917511 586.969604 431.360016 586.90979 Z M 889 586 L 889 373 L 908.5 373 L 928 373 L 928 416.5 L 928 460 L 940.808899 460 C 949.560791 460 954.109741 459.604095 955.171143 458.75 C 956.025513 458.0625 967.674866 438.487488 981.058594 415.25 L 1005.392578 373 L 1026.303345 373 C 1042.629517 373 1047.105347 373.274048 1046.718384 374.25 C 1046.445801 374.9375 1035.165405 394.073059 1021.650879 416.773438 C 1008.136353 439.473846 994.874146 461.768524 992.179382 466.31723 L 987.279846 474.587555 L 1019.139954 529.898926 C 1036.662964 560.32019 1051 585.388 1051 585.605164 C 1051 585.822327 1041.212524 585.989136 1029.25 585.975891 L 1007.5 585.951782 L 981.5 539.483337 L 955.5 493.014893 L 941.75 493.007446 L 928 493 L 928 539.5 L 928 586 L 908.5 586 L 889 586 Z M 1249 586 L 1249 433 L 1267.470947 433 L 1285.941895 433 L 1286.220947 446.019989 L 1286.5 459.039978 L 1291.153564 452.619415 C 1293.713135 449.088135 1298.189697 444.315613 1301.101685 442.013855 C 1304.013672 439.712067 1309.00708 436.510834 1312.19812 434.900024 C 1315.38916 433.289185 1321.005615 431.27417 1324.679199 430.42218 C 1328.352905 429.570221 1334.090332 428.976471 1337.429321 429.102722 C 1340.768188 429.229004 1346.096069 429.929321 1349.269165 430.659027 C 1352.442139 431.388702 1357.223022 433.092804 1359.893311 434.445923 C 1362.563477 435.799011 1366.824707 438.982544 1369.362549 441.520447 C 1371.900513 444.05835 1375.498779 449.280945 1377.358765 453.126221 L 1380.740479 460.117615 L 1385.34668 453.662628 C 1387.880127 450.112396 1392.325928 445.299408 1395.22644 442.967102 C 1398.126953 440.634766 1403.650024 437.225952 1407.5 435.391937 C 1411.349976 433.557892 1417.425049 431.382477 1421 430.557648 C 1425.180664 429.593079 1430.711304 429.197723 1436.5 429.449615 C 1441.725098 429.677002 1448.242554 430.702911 1452.038696 431.895569 C 1455.63501 433.025421 1460.784424 435.518951 1463.481812 437.436737 C 1466.179199 439.354553 1469.797974 442.707733 1471.52356 444.888275 C 1473.249023 447.068787 1475.881226 451.572174 1477.372681 454.895782 C 1478.864258 458.21936 1480.740601 464.367065 1481.542358 468.557312 C 1482.708984 474.655212 1483 487.136749 1483 531.087952 L 1483 586 L 1464.041504 586 L 1445.083008 586 L 1444.791504 533.25 C 1444.5 480.5 1444.5 480.5 1441.5 474.546143 C 1439.197144 469.9758 1437.570557 468.116821 1434.5 466.546143 C 1431.592163 465.058655 1428.582886 464.5 1423.478271 464.5 C 1417.560913 464.5 1415.406616 465.016937 1409.780884 467.786743 C 1405.628174 469.83136 1401.520874 472.854767 1398.912964 475.786743 C 1396.6073 478.379028 1393.450928 483.200012 1391.898926 486.5 C 1390.346924 489.799988 1388.314697 495.200012 1387.382935 498.5 C 1385.955566 503.555481 1385.619873 510.914978 1385.250366 545.25 L 1384.811768 586 L 1365.905884 586 L 1347 586 L 1347 535.549194 C 1347 503.343323 1346.611206 483.285675 1345.924927 480.085785 C 1345.33374 477.328796 1343.869629 473.6185 1342.671631 471.840607 C 1341.473511 470.062744 1338.919678 467.683807 1336.996582 466.554077 C 1334.369263 465.01062 1331.759888 464.5 1326.5 464.5 C 1322.145508 464.5 1317.731689 465.182373 1314.821045 466.305603 C 1312.247559 467.298676 1308.132935 469.645233 1305.677368 471.520142 C 1303.221924 473.395081 1299.371338 477.686737 1297.120605 481.057159 C 1294.869995 484.427612 1291.809937 490.856049 1290.320557 495.342621 C 1287.612671 503.5 1287.612671 503.5 1287.220703 544.75 L 1286.828735 586 L 1267.914429 586 L 1249 586 Z M 1525 586 L 1525 433 L 1543.655518 433 L 1562.311157 433 L 1561.668091 447.135651 C 1561.025024 461.271301 1561.025024 461.271301 1564.829346 455.385315 C 1566.921753 452.148041 1571.421265 446.976654 1574.828369 443.893402 C 1578.235474 440.81015 1583.844482 436.855438 1587.292725 435.105194 C 1590.741089 433.354919 1597.32251 431.182098 1601.918335 430.276672 C 1608.918579 428.897552 1611.705322 428.811096 1619.094482 429.743774 C 1625.093018 430.500946 1629.956177 431.831421 1634.296387 433.902832 C 1638.227661 435.779022 1642.49292 438.888702 1645.404175 442.000977 C 1648.003418 444.779785 1651.530396 450.045746 1653.241821 453.703156 C 1656.353638 460.352966 1656.353638 460.352966 1657.92688 457.952423 C 1658.792114 456.632141 1660.870483 453.743439 1662.54541 451.533081 C 1664.220459 449.322754 1668.270386 445.348297 1671.54541 442.700989 C 1674.820435 440.05365 1680.365112 436.514862 1683.866943 434.836975 C 1687.433105 433.128174 1694.171143 431.088348 1699.185059 430.199646 C 1706.632446 428.879578 1709.650635 428.804199 1717.150635 429.750854 C 1723.207031 430.51532 1728.262085 431.870026 1732.555786 433.879333 C 1736.070801 435.52417 1741.212524 438.989471 1743.982056 441.579987 C 1746.924927 444.332764 1750.251465 448.826935 1751.987061 452.394989 C 1753.620361 455.752747 1755.730957 461.200012 1756.677246 464.5 C 1758.194336 469.790833 1758.440308 477.325592 1758.757813 528.25 L 1759.118042 586 L 1740.05896 586 L 1721 586 L 1720.949219 538.25 C 1720.921265 511.987488 1720.666992 488.475006 1720.384033 486 C 1720.101196 483.524994 1719.212036 479.435181 1718.408203 476.911469 C 1717.604248 474.387787 1715.659302 471.089722 1714.08606 469.582397 C 1712.512695 468.075104 1709.487305 466.222168 1707.362793 465.464813 C 1705.238281 464.707458 1701.859863 464.068024 1699.855347 464.043884 C 1697.85083 464.019745 1693.281738 464.904633 1689.702026 466.010315 C 1685.096924 467.432709 1681.733765 469.332977 1678.202515 472.507813 C 1675.45752 474.975769 1671.765381 479.24884 1669.997681 482.003571 C 1668.22998 484.75827 1665.609619 490.496887 1664.174561 494.756042 C 1661.56543 502.5 1661.56543 502.5 1661.214233 544.25 L 1660.862915 586 L 1641.931519 586 L 1623 586 L 1622.949219 537.25 C 1622.921265 510.4375 1622.650024 486.475006 1622.346558 484 C 1622.043091 481.524994 1620.86731 477.32016 1619.733765 474.655914 C 1618.321167 471.335724 1616.410156 468.976288 1613.659424 467.155914 C 1610.200439 464.866852 1608.597168 464.5 1602.052002 464.5 C 1595.505249 464.5 1593.547485 464.948212 1587.856445 467.749939 C 1584.03418 469.631561 1579.483521 472.921539 1577.047607 475.564148 C 1574.733643 478.074493 1571.298706 483.374939 1569.414307 487.342896 C 1567.529907 491.310852 1565.323608 497.694458 1564.511475 501.528687 C 1563.356567 506.980865 1563.030884 516.944092 1563.017334 547.25 L 1563 586 L 1544 586 L 1525 586 Z M 1982 586 L 1982 433 L 2000.5 433 L 2019 433 L 2019 446.650482 C 2019 460.300964 2019 460.300964 2021.838745 456.074097 C 2023.400146 453.749329 2026.657227 449.804565 2029.07666 447.307983 C 2031.496216 444.811371 2035.407959 441.439331 2037.769531 439.814545 C 2040.131104 438.189758 2044.539917 435.726532 2047.567017 434.340698 C 2050.593994 432.954865 2056.542236 431.201965 2060.7854 430.445404 C 2065.02832 429.688812 2070.975098 429.069763 2074 429.069763 C 2077.024902 429.069763 2082.90625 429.67746 2087.069336 430.420166 C 2091.232666 431.162903 2097.169189 432.96759 2100.261719 434.430573 C 2103.354248 435.893585 2108.15332 439.130463 2110.92627 441.623657 C 2114.268555 444.628723 2117.157715 448.574249 2119.49707 453.3284 C 2121.437988 457.272766 2123.687256 463.649994 2124.495605 467.5 C 2125.685791 473.169189 2125.968506 485.098969 2125.982666 530.25 L 2126 586 L 2107.565674 586 L 2089.131348 586 L 2088.766602 535.25 C 2088.458008 492.29718 2088.158936 483.781342 2086.820557 479.822418 C 2085.950928 477.249756 2084.247559 473.752075 2083.0354 472.049774 C 2081.823242 470.347504 2079.102783 468.072754 2076.989746 466.994781 C 2074.876709 465.91684 2070.732178 464.750916 2067.779297 464.4039 C 2064.756592 464.048615 2059.808838 464.306305 2056.455322 464.993683 C 2053.179932 465.665131 2048.095215 467.343964 2045.155762 468.724426 C 2042.216431 470.104919 2037.476074 473.607544 2034.62146 476.508057 C 2031.766968 479.408569 2028.212891 484.270233 2026.723633 487.311798 C 2025.234253 490.353363 2023.337158 495.447021 2022.507935 498.631042 C 2021.283325 503.33252 2021 512.083862 2021 545.210083 L 2021 586 L 2001.5 586 L 1982 586 Z M 76.758583 575.470581 C 73.968086 576.862671 73.903458 576.823486 70.516205 571.688599 C 68.63372 568.834839 66.798012 565.709106 66.436844 564.742371 C 65.919792 563.358459 66.813454 562.509094 70.640091 560.747437 C 74.529991 558.956665 77.302773 558.509094 84.532196 558.505066 C 89.499908 558.502258 94.521492 558.950012 95.691277 559.5 C 97.818153 560.5 97.818153 560.5 95.021805 567.5 C 92.258408 574.417542 92.185837 574.4953 88.862732 574.102295 C 87.013229 573.883484 84.16761 573.7854 82.539131 573.884216 C 80.91066 573.983032 78.30941 574.696899 76.758583 575.470581 Z M 570.041687 576.736694 C 569.743774 576.866943 566.799988 575.436035 563.5 573.557007 C 560.200012 571.677979 557.5 569.658875 557.5 569.07019 C 557.5 568.481445 558.757568 566.423767 560.294556 564.497498 C 561.831543 562.571228 564.981567 560.012939 567.294556 558.8125 C 570.532043 557.132202 573.686584 556.546997 581 556.27002 C 586.224976 556.072144 591.504333 555.698914 592.731812 555.440674 C 593.95929 555.182373 595.637451 553.667969 596.460999 552.075378 C 597.284607 550.482788 598.642761 545.255371 599.479187 540.458862 C 600.315674 535.662415 601 526.181396 601 519.390015 C 601 509.529633 600.575439 505.748688 598.892578 500.622314 C 596.974854 494.780518 596.893494 493.559998 597.989136 487.064545 C 599.105469 480.446045 599.349854 479.97403 601.346558 480.579315 C 602.530945 480.938354 604.884705 482.268463 606.577087 483.535065 C 608.310852 484.832672 610.788574 488.383514 612.252747 491.669006 C 613.681946 494.876038 615.405701 501.16748 616.083313 505.649902 C 616.864746 510.818665 617.088501 518.13446 616.695129 525.649902 C 616.354004 532.16748 615.579529 540.200012 614.974121 543.5 C 614.368652 546.799988 613.146057 551.85791 612.257202 554.739807 C 611.368408 557.621704 609.328369 561.572266 607.723877 563.518799 C 606.119324 565.465393 602.937561 568.035278 600.653259 569.229736 C 597.343689 570.960266 594.29303 571.485474 585.635437 571.815247 C 576.178528 572.175476 574.499634 572.505737 572.677124 574.364563 C 571.525513 575.539063 570.3396 576.606506 570.041687 576.736694 Z M 121 561.970093 C 116.814972 561.96106 113.075401 561.298096 110.5 560.108582 C 108.300003 559.092468 104.750626 556.852356 102.612495 555.130554 C 99.391983 552.537109 97.846687 552 93.605896 552 C 90.79039 552 87.056206 552.410278 85.307701 552.911743 C 82.190018 553.805908 82.058716 553.706177 78.510063 547.749023 C 76.519859 544.408081 74.803421 541.225098 74.695755 540.675842 C 74.588089 540.126587 76.461784 539.089111 78.85952 538.370361 C 81.257256 537.651611 86.568237 536.760071 90.66169 536.389099 C 95.563202 535.944946 99.53759 536.138062 102.302162 536.95459 C 104.610977 537.636597 108.924133 540.05304 111.886963 542.324585 C 115.96685 545.452454 118.150574 546.444336 120.886963 546.412415 C 123.29924 546.384277 128.986588 544.111511 138 539.57373 C 145.425003 535.835632 155.550003 530.388733 160.5 527.469543 C 165.449997 524.550354 172.199997 519.97052 175.5 517.292114 C 179.886642 513.731812 182.395538 510.667236 184.83046 505.89502 C 187.385757 500.886902 188.172577 498.070831 188.210983 493.795715 C 188.261063 488.223724 188.261063 488.223724 195.085632 485.900299 C 198.839157 484.622406 202.230942 483.897614 202.622925 484.289581 C 203.014923 484.68158 203.545151 487.528595 203.801193 490.616241 C 204.057251 493.703918 203.70961 498.765869 203.028656 501.865082 C 202.347702 504.964294 200.203735 510.54361 198.264282 514.26355 C 196.063477 518.484802 192.584869 523.020569 189.009811 526.330444 C 185.859299 529.247253 180.133408 533.707764 176.285629 536.242676 C 172.437836 538.777649 164.611969 543.445862 158.894821 546.616577 C 153.177673 549.787231 143.774994 554.542053 138 557.1828 C 128.863785 561.360596 126.655754 561.982361 121 561.970093 Z M 1136.539917 556.910583 C 1139.861816 556.959778 1145.228149 556.310181 1148.465088 555.467102 C 1151.701904 554.624023 1156.520874 552.752808 1159.173828 551.308838 C 1161.826782 549.86499 1166.483154 546.077515 1169.52124 542.892334 C 1172.559448 539.707153 1176.151733 534.715881 1177.504028 531.800537 C 1178.856445 528.885254 1180.533813 524.025024 1181.231567 521 C 1181.929199 517.974976 1182.455444 512.316772 1182.400879 508.426208 C 1182.343994 504.364136 1181.403809 498.403503 1180.192505 494.426208 C 1179.032349 490.616791 1176.785034 485.475006 1175.198608 483 C 1173.612061 480.524994 1169.981323 476.333252 1167.130371 473.684967 C 1164.279297 471.036713 1159.033325 467.506653 1155.472534 465.840363 C 1150.593262 463.557098 1147.014282 462.674774 1140.943726 462.258698 C 1136.279053 461.938965 1130.702637 462.197021 1127.694458 462.871796 C 1124.837524 463.512634 1120.25 465.082092 1117.5 466.359436 C 1114.75 467.63681 1109.987793 470.979797 1106.917358 473.78833 C 1103.831299 476.611145 1099.932251 481.526123 1098.198608 484.778839 C 1096.473633 488.015076 1094.373291 493.308289 1093.53125 496.541565 C 1092.689087 499.774811 1092 505.60611 1092 509.5 C 1092 513.393921 1092.671265 519.156921 1093.491699 522.306702 C 1094.312134 525.456482 1096.164429 530.36438 1097.608032 533.213135 C 1099.051514 536.06189 1102.767822 540.916626 1105.866333 544.001465 C 1108.964844 547.086304 1113.665771 550.651794 1116.312866 551.924805 C 1118.959961 553.197754 1123.234985 554.820251 1125.812866 555.530273 C 1128.390747 556.240234 1133.217896 556.861389 1136.539917 556.910583 Z M 2230.010986 490 C 2263.271729 490 2263.271729 490 2262.631836 485.331085 C 2262.280029 482.763184 2260.943848 478.372955 2259.663086 475.575012 C 2258.38208 472.777069 2255.830078 468.983978 2253.992188 467.145966 C 2252.154053 465.307922 2248.654297 462.835663 2246.2146 461.652039 C 2242.61377 459.904907 2239.965332 459.5 2232.139648 459.5 C 2223.799316 459.5 2221.737793 459.857361 2216.844727 462.151367 C 2213.734131 463.609619 2209.359863 466.687775 2207.124023 468.991699 C 2204.888184 471.295624 2201.927734 475.502533 2200.545166 478.340332 C 2199.162842 481.178162 2197.743408 484.962494 2197.390869 486.75 C 2196.75 490 2196.75 490 2230.010986 490 Z M 160 481.452972 C 151.475006 481.623444 143.600006 481.607117 142.5 481.416656 C 141.399994 481.226166 137.574997 480.796722 134 480.462311 C 130.425003 480.127899 123.224998 479.183868 118 478.364502 C 112.775002 477.545105 103.775002 475.988129 98 474.904541 C 92.224998 473.820984 84.36586 472.006866 80.53524 470.873199 C 76.704628 469.739532 70.901825 467.464844 67.640137 465.818329 C 61.944584 462.943237 61.289894 462.840942 51.104889 463.23465 C 45.272202 463.460114 38.612133 463.25293 36.304741 462.774261 C 33.487518 462.189819 30.413963 460.379547 26.947704 457.263062 C 24.10873 454.710602 20.543623 452.43985 19.025246 452.21701 C 17.506868 451.994171 14.795238 452.571655 12.999401 453.500305 C 9.8177 455.14563 9.678133 455.128876 7.539 452.844391 C 6.331615 451.554993 4.092144 448.944427 2.562397 447.043152 C -0.218963 443.586334 -0.218963 443.586334 2.640518 441.277069 C 4.213233 440.006989 7.719175 438.300049 10.431501 437.483917 C 13.143826 436.667755 16.968826 436.009888 18.931501 436.021973 C 20.894176 436.034027 24.424599 436.91745 26.776886 437.985107 C 29.129173 439.052765 33.215057 441.748718 35.856628 443.976105 C 40.659481 448.02594 40.659481 448.02594 53.589825 447.76297 C 66.520164 447.5 66.520164 447.5 74.010086 451.247345 C 78.249496 453.368408 86.056831 456.057068 92 457.442596 C 97.775002 458.78894 108.125 460.813354 115 461.941315 C 121.875 463.069244 131.100006 464.382935 135.5 464.860596 C 139.899994 465.338287 149.002777 465.812592 155.728394 465.914642 C 163.3311 466.029999 171.597763 465.47998 177.582001 464.460602 C 182.87587 463.558807 189.627319 461.988342 192.585236 460.970673 C 195.543137 459.953003 201.459015 457.290192 205.731628 455.053345 C 210.004227 452.816467 216.758865 448.281799 220.741943 444.976257 C 224.725006 441.670746 230.50296 435.93631 233.581833 432.233124 C 236.660706 428.529907 241.051834 422.226257 243.33989 418.225006 C 247.031281 411.769684 247.769318 411.015259 249.890366 411.529266 C 251.205063 411.84787 254.497635 413.231964 257.207184 414.60498 C 262.133667 417.10144 262.133667 417.10144 258.925323 422.80072 C 257.160736 425.935333 253.960266 431.092834 251.813187 434.261841 C 249.666092 437.430847 245.117279 443.019196 241.704697 446.680328 C 238.292114 450.341492 232.270859 455.911224 228.324127 459.057526 C 224.377396 462.203827 217.852386 466.580841 213.824127 468.784241 C 209.795853 470.98761 203.282318 473.936707 199.349579 475.337769 C 195.416855 476.738831 188.441864 478.618164 183.849579 479.514069 C 179.051788 480.450043 168.90654 481.274841 160 481.452972 Z M 280.486664 468 C 270.383911 468 261.891022 467.632721 261.613586 467.183807 C 261.336151 466.734894 261.584747 463.163177 262.166046 459.246704 C 263.222931 452.125793 263.222931 452.125793 274.933258 452.70163 C 281.468079 453.02298 291.609833 452.757477 297.880554 452.100891 C 304.398132 451.418457 311.837952 449.936859 315.594788 448.573181 C 319.157288 447.28009 323.926392 444.937012 326.192871 443.366333 C 328.45932 441.795685 333.730621 436.754059 337.90686 432.16272 C 342.083069 427.571381 348.359131 421.758698 351.853638 419.245667 C 355.348145 416.732635 361.198151 413.562012 364.853638 412.19986 C 369.9711 410.292877 374.102295 409.610474 382.812653 409.233337 C 391.265381 408.867371 395.795319 409.15567 400.731262 410.373718 C 404.364563 411.270325 407.460236 412.126923 407.610596 412.277252 C 407.760925 412.427582 406.713135 415.835388 405.282135 419.850128 C 402.98172 426.304108 402.438202 427.077637 400.590179 426.527832 C 399.440582 426.185852 395.387543 425.411682 391.583435 424.807465 C 386.503571 424.000671 383.051392 424.009369 378.583435 424.840271 C 375.237549 425.462494 369.628876 427.38504 366.11972 429.11261 C 361.903656 431.188171 357.833252 434.309326 354.11972 438.314178 C 351.02887 441.647491 346.108246 446.68808 343.184998 449.515472 C 340.261749 452.342896 335.420441 456.140808 332.426544 457.955292 C 329.432648 459.769775 324.135681 462.287933 320.655487 463.551147 C 317.175323 464.814392 310.846558 466.332153 306.591583 466.923981 C 302.336609 467.515778 290.589386 468 280.486664 468 Z M 35 431.49765 C 33.068886 431.803833 31.693958 430.973267 28.9578 427.847595 C 26.02002 424.491638 24.628136 423.712402 20.80069 423.281006 C 17.72414 422.934235 15.15451 423.275299 13.092076 424.304169 C 9.998368 425.847534 9.998368 425.847534 5.749184 420.406891 C 3.412133 417.414551 1.5 414.411346 1.5 413.733124 C 1.5 413.054901 3.452214 411.514923 5.838254 410.310944 C 8.224294 409.106934 12.592697 407.819977 15.545817 407.451019 C 18.715425 407.054993 22.955542 407.269653 25.89563 407.974976 C 28.634905 408.632111 32.878551 410.439667 35.325954 411.99176 C 37.773357 413.543854 41.230934 416.928741 43.009453 419.513733 C 44.787975 422.098724 46.451458 425.010376 46.706085 425.98407 C 47.064919 427.356262 46.08176 428.130737 42.334518 429.427826 C 39.675533 430.348236 36.375 431.279633 35 431.49765 Z M 171.297943 382.853302 C 157.026779 400.729523 150.547241 408.030212 147.691772 410.610138 C 144.836288 413.190033 140.19165 416.328552 137.370316 417.584625 C 134.548996 418.840668 129.598999 420.342865 126.370323 420.922791 C 123.141647 421.502747 116.449997 422.148224 111.5 422.357239 C 106.550003 422.566254 100.25 422.579956 97.5 422.387695 C 94.75 422.195435 89.377174 421.561188 85.560387 420.978271 C 81.716743 420.391266 76.434853 418.728699 73.721024 417.251648 C 71.026169 415.784912 66.649002 412.208038 63.993996 409.30304 C 61.338985 406.398041 57.80825 401.302704 56.147915 397.980103 C 54.487579 394.657471 52.616508 389.469727 51.989983 386.451752 C 50.983879 381.605377 50.421612 380.745728 47.175423 379.090698 C 45.153942 378.060089 40.994873 376.634888 37.933056 375.923615 C 32.366108 374.630341 32.366108 374.630341 32.735085 369.065186 C 32.938019 366.004333 33.318718 362.469574 33.581085 361.210144 C 34.008652 359.157715 34.44392 358.991547 37.779057 359.607758 C 39.825577 359.98587 44.200001 361.169861 47.5 362.238892 C 50.799999 363.307922 54.972134 365.084137 56.771408 366.186066 C 58.570686 367.287994 61.172737 369.67099 62.553745 371.481567 C 63.934753 373.292175 65.973564 378.087006 67.084435 382.13678 C 68.195297 386.186554 70.656387 391.856537 72.553513 394.736755 C 74.450638 397.616974 77.700241 401.096802 79.774857 402.469696 C 82.130119 404.028351 85.979469 405.299225 90.023438 405.853333 C 93.585548 406.3414 100.62989 406.824799 105.677544 406.927521 C 110.725189 407.030243 117.671837 406.603516 121.11454 405.979218 C 124.557236 405.35495 129.501694 403.765991 132.102219 402.448212 C 134.98674 400.986511 138.91066 397.566437 142.165222 393.677338 C 145.09935 390.171143 150.132629 384.06192 153.350296 380.101318 C 156.567947 376.140686 159.533371 373.035156 159.940109 373.200104 C 160.346848 373.365051 163.068741 375.604492 165.988785 378.176636 L 171.297943 382.853302 Z M 230.140457 416.921051 C 229.238205 416.877625 225.873245 415.927032 222.662766 414.808655 C 217.572861 413.035522 216.89856 412.501495 217.395996 410.637573 C 217.709763 409.461914 218.76152 405.350006 219.733231 401.5 C 220.865631 397.013397 221.5 390.729919 221.5 384 C 221.5 374.654205 221.225189 373.010468 219 369.046692 C 217.625 366.597382 214.654694 363.222382 212.399323 361.546692 C 210.143951 359.871002 205.74852 356.700012 202.631714 354.5 C 199.514893 352.299988 195.740585 348.746277 194.244385 346.602814 C 192.03421 343.436554 191.455963 341.358398 191.16127 335.522369 C 190.872635 329.80658 191.241104 327.310303 192.964966 323.30307 C 194.156509 320.533264 196.376709 316.775391 197.898743 314.95224 C 200.666077 311.637421 200.666077 311.637421 204.820114 314.975677 C 207.104828 316.811737 209.68811 319.102875 210.56073 320.067108 C 212.019638 321.679169 211.94194 322.130615 209.595383 325.676483 C 208.191818 327.797424 206.76387 330.930634 206.422165 332.63916 C 205.916458 335.167694 206.330994 336.308533 208.650436 338.771606 C 210.217697 340.435944 214.216217 343.594543 217.536026 345.790771 C 220.855835 347.987 225.22757 351.616364 227.250977 353.856049 C 229.274399 356.095734 232.014725 360.081848 233.340576 362.714081 C 234.666443 365.346344 236.257217 369.884644 236.875626 372.799225 C 237.494034 375.713806 237.996597 380.438782 237.992447 383.299225 C 237.988297 386.159637 237.519958 391.424988 236.951721 395 C 236.383484 398.575012 234.987579 404.987488 233.849731 409.25 C 232.310226 415.01712 231.361176 416.979797 230.140457 416.921051 Z M 193.154266 405.766571 C 192.739761 405.913177 191.410477 404.67569 190.200302 403.016571 C 188.990143 401.357452 187.015564 398.650269 185.812363 397.00058 C 183.624725 394.001129 183.624725 394.001129 186.248749 391.25058 C 187.691956 389.737762 189.367828 387.189972 189.9729 385.588837 C 191.043747 382.755219 190.797943 382.408997 180.74411 372.588837 C 175.063202 367.039978 167.69313 360.024994 164.36618 357 C 159.639999 352.702789 157.824844 350.187866 156.065948 345.5 C 154.146317 340.383728 153.870651 338.0271 154.194321 329.5 C 154.505585 321.299652 155.052399 318.464722 157.232834 313.747345 C 158.695251 310.583405 162.129913 305.633392 164.865417 302.747345 C 167.600906 299.861298 171.185455 296.710571 172.83107 295.745728 C 175.823074 293.991425 175.823074 293.991425 179.532181 300.623932 C 183.241272 307.256409 183.241272 307.256409 178.708557 311.130859 C 176.215561 313.26181 173.240128 316.938232 172.096466 319.30072 C 170.95282 321.663208 169.727966 325.705566 169.374588 328.283783 C 168.990036 331.089386 169.251831 334.82782 170.026672 337.595276 C 171.151093 341.611328 172.698517 343.419922 181.797867 351.353302 C 187.559998 356.377075 194.51416 362.96524 197.251587 365.993713 C 199.988998 369.022156 203.067368 373.299988 204.092392 375.5 C 205.117416 377.700012 205.961563 381.524994 205.968262 384 C 205.97554 386.680939 205.023331 390.521179 203.612686 393.5 C 202.31041 396.25 199.594101 400.075012 197.576416 402 C 195.558746 403.924988 193.568787 405.619965 193.154266 405.766571 Z M 36.326691 402.697388 C 35.681374 402.949158 34.686069 402.281921 34.11491 401.214722 C 33.543747 400.147491 31.704151 398.705872 30.026917 398.011139 C 28.219162 397.26236 25.387695 397.002197 23.07341 397.372284 C 19.228422 397.987122 19.120495 397.917236 15.932008 392.74826 C 14.15143 389.861725 12.49402 386.743835 12.248874 385.819641 C 11.914375 384.558563 12.888223 383.809967 16.151577 382.819641 C 18.543209 382.093842 23.043634 381.515045 26.152519 381.533417 C 29.999739 381.556152 33.469532 382.346405 37.016682 384.007813 C 39.883083 385.350372 43.751949 388.228821 45.614162 390.404419 C 47.476372 392.579987 49 394.86026 49 395.47168 C 49 396.083099 46.412498 397.856049 43.25 399.41153 C 40.087502 400.96701 36.972012 402.445648 36.326691 402.697388 Z M 272.179108 393.897491 C 271.805603 393.841095 268.424469 392.86554 264.665527 391.729584 C 258.161713 389.76413 257.861572 389.539246 258.462219 387.082092 C 258.809357 385.661957 259.335815 381.125 259.632141 377 C 260.10611 370.401825 259.890076 369.002533 257.835449 365.362976 C 256.550964 363.087616 252.350006 358.550751 248.5 355.281036 C 244.248688 351.670502 240.417664 347.347229 238.743652 344.271057 C 237.227661 341.485291 235.518127 336.79715 234.944687 333.852997 C 234.371246 330.908844 234.17691 326.585907 234.512833 324.24646 C 235.049927 320.506104 235.387604 320.053772 237.311798 320.497406 C 238.515305 320.774872 241.862503 321.488739 244.75 322.083801 C 250 323.165741 250 323.165741 250 327.425568 C 250 329.954407 250.914307 333.361542 252.25 335.81012 C 253.487503 338.078705 257.649994 342.555817 261.5 345.759277 C 266.877228 350.233459 269.297241 353.145599 271.938995 358.321198 C 275.063721 364.443024 275.381592 365.85556 275.417419 373.779327 C 275.439117 378.575714 274.872162 385.087494 274.157532 388.25 C 273.442902 391.412506 272.552612 393.953857 272.179108 393.897491 Z M 309 381.612152 C 306.524994 381.673859 303.037506 381.532837 301.25 381.298798 C 298.00885 380.874451 298 380.857605 298 375.114777 C 298 371.947601 297.304749 367.315826 296.454987 364.82196 C 295.605255 362.328064 293.470154 358.814911 291.710327 357.014923 C 289.9505 355.214935 285.808258 351.922058 282.50531 349.697418 C 279.202393 347.472778 274.961365 344.043304 273.080811 342.076324 C 271.200287 340.109344 268.358063 335.714661 266.764801 332.310333 C 265.171539 328.906006 263.609711 323.6185 263.294067 320.560333 C 262.720184 315 262.720184 315 270.341034 315 C 277.845398 315 277.970886 315.042053 278.550293 317.75 C 278.873932 319.262512 279.820282 322.413971 280.65332 324.753265 C 281.58017 327.356018 283.784546 330.365234 286.333954 332.507874 C 288.625275 334.433624 293.305023 338.025696 296.733337 340.490295 C 300.161682 342.954865 304.30957 346.825134 305.950867 349.090851 C 307.592133 351.356567 309.893036 355.750519 311.063934 358.855164 C 312.549286 362.793549 313.239319 367.069611 313.346436 373 C 313.5 381.5 313.5 381.5 309 381.612152 Z M 580.30127 377.644592 C 571 378.280579 571 378.280579 571 370.29306 C 571 362.305573 571 362.305573 581.75 361.663025 C 587.662476 361.309601 597.224976 359.939819 603 358.61908 C 608.775024 357.298309 617.136658 354.815277 621.581421 353.101166 C 626.026184 351.387085 632.423279 348.300598 635.797119 346.24234 C 639.171021 344.184052 644.369995 340.381348 647.350464 337.79187 C 651.567749 334.127808 653.783936 331.023132 657.343933 323.79187 C 659.859863 318.681335 662.865112 311.125 664.022217 307 C 665.344727 302.285248 666.337402 295.04361 666.695251 287.5 C 667.101074 278.946045 666.80896 272.628296 665.678101 265.5 C 664.805603 260 662.888733 251.899994 661.418457 247.5 C 659.948181 243.100006 657.501099 237.024994 655.98053 234 C 654.4599 230.974976 651.196472 225.799988 648.728516 222.5 C 646.260498 219.200012 641.824463 214.171326 638.870605 211.325134 C 635.916748 208.479004 631.063721 204.560242 628.08606 202.616821 C 625.108398 200.673401 619.382813 197.883667 615.36261 196.417358 C 610.146423 194.514954 604.393921 193.424011 595.276489 192.608215 C 582.5 191.465027 582.5 191.465027 582.784546 185.982483 C 582.94104 182.967102 583.298096 179.443787 583.577942 178.152893 C 584.070801 175.879944 584.314636 175.825623 591.293457 176.434082 C 595.257019 176.779663 600.843628 177.293091 603.70813 177.575012 C 606.572571 177.856934 611.403687 178.735535 614.443848 179.527405 C 617.48407 180.319275 622.852112 182.273315 626.372925 183.86969 C 629.893738 185.466125 635.412659 188.571289 638.637207 190.770081 C 641.861755 192.968811 646.623474 196.645935 649.21875 198.941406 C 651.814087 201.236877 656.678345 206.752319 660.028198 211.197937 C 663.378113 215.643555 667.828491 222.7052 669.917969 226.890442 C 672.007446 231.075684 674.885437 238.100006 676.313477 242.5 C 677.741516 246.899994 679.632568 254.325012 680.515747 259 C 681.398926 263.674988 682.298157 272.899994 682.514038 279.5 C 682.766113 287.205292 682.378662 294.681183 681.431458 300.388702 C 680.620178 305.277496 678.808716 312.696167 677.406006 316.874695 C 676.003357 321.053192 673.015564 328.008972 670.766479 332.33197 C 668.517395 336.654938 664.42981 342.651031 661.682922 345.656555 C 658.936035 348.662109 653.946106 353.066376 650.594299 355.443848 C 647.242432 357.821289 641.220154 361.408417 637.211487 363.415192 C 633.20282 365.421997 626.002808 368.375488 621.211487 369.978485 C 616.420166 371.581512 607.348083 373.819061 601.05127 374.950836 C 594.754456 376.082611 585.416931 377.2948 580.30127 377.644592 Z M 332.643646 358.923462 C 332.014648 358.881378 329.024994 357.33548 326 355.488159 C 322.975006 353.640839 320.560547 351.537781 320.634583 350.814697 C 320.708588 350.091614 321.800842 346.412415 323.061798 342.638702 C 324.996552 336.848541 325.173218 335.287415 324.19342 332.638702 C 323.55484 330.912415 320.887604 327.727356 318.266174 325.560791 C 315.644775 323.394226 310.561584 318.66922 306.970184 315.060791 C 303.378784 311.452362 297.658173 304.628326 294.25769 299.896301 C 290.857208 295.164276 286.171967 287.764526 283.846069 283.452454 C 281.520172 279.140381 279.59079 274.736755 279.558563 273.666626 C 279.512512 272.136444 280.978638 271.218353 286.423767 269.367554 C 290.231842 268.073212 293.381836 267.123505 293.423767 267.25708 C 293.465698 267.390686 295.014038 270.542206 296.864532 274.260437 C 298.715027 277.978668 302.722473 284.503662 305.769989 288.760437 C 308.817505 293.017181 313.153473 298.57254 315.405457 301.105652 C 317.657471 303.638763 323.144592 308.891235 327.599091 312.777771 C 332.053619 316.664337 336.465912 321.462036 337.404175 323.439331 C 338.342468 325.416626 339.442474 328.939178 339.848663 331.267212 C 340.254822 333.595245 340.221008 337.880341 339.773499 340.789673 C 339.325958 343.698975 337.79599 348.986481 336.373566 352.539673 C 334.951141 356.092865 333.272675 358.965546 332.643646 358.923462 Z M 127.35923 338.386414 C 125.587875 338.948273 125.025429 338.511719 124.099838 335.856567 C 123.484596 334.091675 122.7061 329.6875 122.369843 326.06955 C 121.941505 321.460815 122.254868 317.546661 123.416504 312.995697 C 124.328423 309.423065 126.520264 304.098877 128.287262 301.164185 C 130.054276 298.229492 135.013657 291.141357 139.308136 285.412781 C 143.602615 279.684204 146.858856 274.580627 146.54422 274.071533 C 146.229568 273.562439 144.357193 272.612915 142.383362 271.961517 C 139.03627 270.856873 138.839508 270.565735 139.461777 267.63855 C 139.82872 265.912354 140.374191 263.096893 140.673904 261.381958 C 140.973633 259.667023 141.590195 257.663086 142.044052 256.928741 C 142.72348 255.829376 143.818649 255.892822 148.244186 257.287842 C 151.200409 258.219696 155.494675 260.587524 157.786987 262.549652 C 160.41922 264.802765 162.389908 267.569366 163.135696 270.058594 C 164.028961 273.040039 164.038254 274.91333 163.173798 277.75 C 162.545273 279.8125 159.275696 285.100006 155.908066 289.5 C 152.540421 293.899994 147.247284 301.278046 144.145523 305.89563 C 138.524582 314.26355 138.505936 314.316406 138.502975 321.89563 C 138.501343 326.078033 138.725006 330.577881 139 331.895294 C 139.443146 334.018219 138.931473 334.484833 134.5 335.998962 C 131.75 336.938599 128.536652 338.012939 127.35923 338.386414 Z M 580 329.337463 C 575.875 329.579437 570.700012 329.58255 568.5 329.34436 C 566.299988 329.106171 560.47998 328.228088 555.566589 327.393066 C 550.653198 326.558044 542.490479 324.547821 537.427246 322.925934 C 531.467041 321.016693 525.450073 318.151489 520.360718 314.799042 C 516.037292 311.951172 510.17218 308.341339 507.327087 306.777191 C 504.481995 305.213043 499.050293 302.877594 495.256622 301.58728 C 491.462952 300.296967 485.14679 298.699432 481.220703 298.037231 C 475.957001 297.149384 472.288849 297.11145 467.25296 297.892792 C 463.496826 298.475586 455.71579 300.337708 449.961792 302.030823 C 444.207825 303.723969 435.354675 306.190674 430.288208 307.512421 C 425.22171 308.834137 417.34671 310.315704 412.788208 310.804749 C 408.229675 311.293793 400.225006 311.541443 395 311.355103 C 389.774994 311.168762 381.450012 310.333313 376.5 309.498535 C 371.549988 308.663788 363.300262 306.897888 358.167297 305.574341 C 353.034302 304.250793 348.637115 302.970459 348.395782 302.729126 C 348.154449 302.487762 348.737549 299.037933 349.691589 295.062775 C 351.365051 288.090027 351.51947 287.853882 354.071655 288.364319 C 355.526672 288.655334 361.168274 290.019531 366.608551 291.395905 C 372.048859 292.772278 380.69809 294.434692 385.829102 295.090179 C 391.337219 295.793823 399.323975 296.023743 405.329102 295.65155 C 410.923096 295.30481 419.100006 294.147369 423.5 293.079437 C 427.899994 292.011505 435.100006 289.999817 439.5 288.608978 C 443.899994 287.21817 451.325012 285.165344 456 284.047119 C 461.306213 282.777924 467.927399 282.011383 473.621765 282.007019 C 480.064514 282.002045 485.624268 282.730743 492.552094 284.488129 C 497.946777 285.856628 505.960358 288.665527 510.360046 290.730194 C 514.759766 292.79483 520.792053 296.18808 523.765137 298.270752 C 526.73822 300.353424 531.768005 303.368469 534.942322 304.970886 C 538.116699 306.573303 544.265808 308.764557 548.606934 309.840332 C 552.94812 310.916138 560.005859 312.292145 564.290833 312.898163 C 568.575806 313.504181 574.443787 314 577.33075 314 C 580.217712 314 585.22522 313.310974 588.458435 312.468811 C 591.691711 311.626648 596.98938 309.523956 600.23114 307.796112 C 603.472839 306.068298 608.117554 302.438629 610.552673 299.730164 C 613.333923 296.636749 615.541626 292.915161 616.490112 289.721344 C 617.354004 286.812378 618 280.739899 618 275.528595 C 618 270.518982 617.328735 263.843079 616.508362 260.693298 C 615.687927 257.543488 613.926941 252.815918 612.595032 250.187561 C 611.263123 247.559204 608.295959 243.53125 606.001282 241.236542 C 603.706543 238.941864 599.505066 235.995422 596.664551 234.688904 C 593.824036 233.382385 588.349976 231.502441 584.5 230.511292 C 580.650024 229.520142 577.399719 228.636841 577.2771 228.54834 C 577.154541 228.4599 577.463196 226.83783 577.963074 224.943787 C 578.462952 223.049683 579.356262 219.631592 579.948181 217.3479 C 581.024353 213.195862 581.024353 213.195862 589.762207 215.592346 C 594.567993 216.910461 601.424988 219.416199 605 221.160706 C 609.081543 223.152344 613.732422 226.599243 617.5 230.424744 C 621.050659 234.030029 624.809021 239.181122 626.706604 243.04303 C 628.470215 246.632355 630.616638 252.25351 631.476379 255.534515 C 632.336121 258.815521 633.31897 265.379791 633.660461 270.121735 C 634.012512 275.011047 633.782898 282.154053 633.130005 286.621735 C 632.424744 291.447449 630.781128 296.952148 628.887939 300.828674 C 627.105896 304.4776 623.51416 309.404205 620.405396 312.463715 C 617.373901 315.447174 611.617981 319.53363 607.256775 321.798676 C 602.99054 324.014404 596.799988 326.518097 593.5 327.362396 C 590.200012 328.206696 584.125 329.095459 580 329.337463 Z M 36 319.533325 L 36 0 L 360.5 0 L 685 0 L 685 86 L 685 172 L 677.006104 172 L 669.012207 172 L 668.756104 93.75 L 668.5 15.5 L 361 15.442871 C 191.875 15.411438 52.9375 15.572083 52.25 15.799866 C 51.257317 16.128723 51 47.433472 51 167.873657 L 51 319.533325 L 43.5 319.533325 L 36 319.533325 Z M 1075.284302 200.740601 C 1060.982056 173.522156 1060.982056 173.522156 1063.241089 171.769836 C 1064.483521 170.806091 1069.550049 168.000916 1074.5 165.536133 C 1079.449951 163.07135 1087.775024 159.87262 1093 158.427917 C 1100.425293 156.374756 1105.627563 155.685608 1116.821045 155.272461 C 1127.731567 154.86969 1133.057373 155.127991 1139.185181 156.357056 C 1143.608887 157.244324 1150.664429 159.622925 1154.864136 161.642822 C 1160.092285 164.157349 1164.421021 167.236328 1168.592285 171.407654 C 1172.736206 175.551575 1175.843628 179.90979 1178.308594 185.034851 C 1180.373291 189.327759 1182.484863 195.781616 1183.216309 200.034851 C 1184.149048 205.459229 1184.5 221.715149 1184.5 259.499756 L 1184.5 311.499481 L 1168 311.566406 C 1158.925049 311.60321 1151.168945 311.362244 1150.764282 311.030914 C 1150.359619 310.699585 1149.970947 305.494568 1149.900757 299.464233 C 1149.799927 290.81543 1149.532959 288.892181 1148.636475 290.357117 C 1148.011475 291.37851 1146.057129 294.138245 1144.293701 296.489838 C 1142.530273 298.841431 1138.864258 302.39743 1136.146973 304.39209 C 1133.42981 306.386719 1128.751709 309.104401 1125.751221 310.431335 C 1122.750732 311.75827 1117.671631 313.329071 1114.464233 313.921967 C 1111.256836 314.514893 1105.677856 314.964233 1102.066284 314.920502 C 1098.454834 314.87677 1092.800049 314.24411 1089.5 313.514557 C 1086.199951 312.785004 1081.474976 311.292145 1079 310.197113 C 1076.525024 309.102051 1072.275635 306.601898 1069.556885 304.641205 C 1066.838135 302.680511 1063.065308 299.146667 1061.172607 296.788177 C 1059.280029 294.429688 1056.674805 290.226837 1055.383301 287.448517 C 1054.091797 284.670197 1052.491333 278.899292 1051.826782 274.624298 C 1050.886841 268.578796 1050.883789 265.303528 1051.812988 259.88504 C 1052.469971 256.053436 1054.168701 250.627075 1055.587891 247.826447 C 1057.00708 245.025848 1060.251709 240.50708 1062.798096 237.78476 C 1065.344482 235.062439 1070.369141 231.098206 1073.963989 228.975281 C 1077.558838 226.852417 1083.892334 223.985352 1088.038452 222.604065 C 1092.18457 221.222717 1100.734619 219.197266 1107.038452 218.102966 C 1113.342285 217.008728 1121.875 215.882141 1126 215.599426 C 1130.125 215.316711 1136.599487 215.066223 1140.387695 215.042725 C 1147.275391 215 1147.275391 215 1146.619385 209.25 C 1146.258545 206.087524 1144.93457 201.479126 1143.677002 199.009155 C 1142.408325 196.517029 1139.578491 193.244629 1137.319092 191.656616 C 1135.07959 190.082703 1130.68335 188.198914 1127.549438 187.470398 C 1124.352905 186.727356 1118.639038 186.325562 1114.533447 186.555237 C 1110.508545 186.780396 1103.679443 188.096863 1099.357666 189.480774 C 1095.036011 190.864685 1087.85144 193.964294 1083.39209 196.368774 L 1075.284302 200.740601 Z M 1448 98 L 1486 98 L 1486 204.393005 C 1486 288.619873 1485.739624 310.872314 1484.75 311.200134 C 1484.0625 311.427917 1476.081177 311.588562 1467.013672 311.557129 C 1453.021118 311.508636 1450.482666 311.267944 1450.231934 309.96582 C 1450.069458 309.122009 1449.924438 304.022125 1449.909668 298.632721 C 1449.882935 288.833862 1449.882935 288.833862 1446.776001 293.524475 C 1445.067139 296.104309 1441.404419 300.005219 1438.636475 302.193146 C 1435.86853 304.381073 1430.935303 307.51825 1427.67395 309.164612 C 1424.412476 310.810974 1418.764038 312.789642 1415.121948 313.561646 C 1411.479858 314.333649 1405.125 314.936401 1401 314.901123 C 1396.875 314.865814 1390.349976 314.168457 1386.5 313.35141 C 1382.650024 312.534332 1376.125 310.256256 1372 308.288971 C 1366.286743 305.56424 1362.57019 302.780914 1356.399902 296.606049 C 1349.79895 290.000244 1347.434814 286.74176 1343.626343 279 C 1341.055908 273.774994 1337.950928 265.450012 1336.72644 260.5 C 1334.903809 253.132446 1334.5 248.667755 1334.5 235.885315 C 1334.5 225.313171 1335.029785 217.699097 1336.140625 212.307678 C 1337.042969 207.928101 1338.908325 201.55426 1340.286011 198.143616 C 1341.663574 194.732971 1344.300293 189.446899 1346.145386 186.396729 C 1347.990479 183.346619 1351.650269 178.435669 1354.27832 175.483521 C 1356.906372 172.531372 1362.081421 168.117004 1365.77832 165.673889 C 1369.47522 163.230774 1375.811157 160.046814 1379.858276 158.598389 C 1383.905273 157.149963 1390.490723 155.614075 1394.492676 155.185303 C 1398.494629 154.756531 1404.408325 154.565186 1407.634399 154.760071 C 1410.860474 154.955017 1416.374023 155.771484 1419.886719 156.574524 C 1423.399414 157.377563 1429.38208 159.668152 1433.181519 161.664673 C 1437.150757 163.750488 1441.772095 167.206299 1444.0448 169.788147 C 1448 174.281555 1448 174.281555 1448 136.140808 L 1448 98 Z M 1662.205566 242 C 1555.777466 242 1555.777466 242 1556.475342 245.720184 C 1556.859131 247.766296 1557.854492 251.446808 1558.687012 253.899109 C 1559.519653 256.351379 1561.296021 260.092743 1562.634644 262.213196 C 1563.973145 264.333679 1566.950195 267.894836 1569.250244 270.126923 C 1571.550171 272.359009 1575.47229 275.218384 1577.966064 276.48111 C 1580.459717 277.743805 1584.944214 279.502136 1587.931519 280.388489 C 1591.047974 281.313141 1596.953491 282 1601.787109 282 C 1606.42041 282 1612.976318 281.284973 1616.355713 280.411072 C 1619.734985 279.53717 1625.650024 277.345123 1629.5 275.539856 C 1633.349976 273.734589 1638.525024 270.854065 1641 269.138733 C 1645.341797 266.129517 1645.552734 266.085754 1647 267.89328 C 1647.824951 268.923615 1651.199951 275.021362 1654.5 281.443756 C 1660.5 293.12088 1660.5 293.12088 1657 296.13623 C 1655.074951 297.794678 1648.550049 301.581299 1642.5 304.550934 C 1636.449951 307.520599 1627.675049 310.901001 1623 312.062988 C 1617.206421 313.50296 1610.360718 314.286377 1601.5 314.523407 C 1591.62439 314.787567 1586.457153 314.432098 1580 313.044342 C 1575.324951 312.039612 1568.997925 310.268219 1565.939697 309.107941 C 1562.881592 307.947632 1557.732544 305.404358 1554.497314 303.456238 C 1551.262207 301.508118 1546.155273 297.812592 1543.14856 295.243958 C 1540.141968 292.675323 1535.679688 287.857147 1533.2323 284.536865 C 1530.784912 281.216583 1527.266968 275.494446 1525.414429 271.820984 C 1523.562012 268.147552 1521.105225 261.847534 1519.954956 257.820984 C 1518.574463 252.98877 1517.681641 246.250641 1517.328491 238 C 1516.890625 227.76593 1517.16748 223.687256 1518.855835 215.5 C 1520.333496 208.334778 1522.331421 202.665222 1525.903687 195.5 C 1529.190918 188.906616 1532.960938 183.220825 1536.970337 178.809692 C 1540.314941 175.130066 1546.179443 170.039917 1550.002563 167.498291 C 1553.825684 164.956665 1560.519897 161.575684 1564.87854 159.984985 C 1569.237183 158.394287 1575.860229 156.560486 1579.596436 155.909851 C 1583.332642 155.259216 1590.348145 154.74231 1595.186401 154.761169 C 1600.02478 154.78009 1607.474609 155.554382 1611.741699 156.481812 C 1616.008789 157.409241 1622.875 159.805237 1627 161.806274 C 1632.479248 164.464233 1636.546143 167.481812 1642.094482 173.006104 C 1647.953491 178.839783 1650.63623 182.502319 1653.834473 189.033875 C 1656.114624 193.690247 1658.723877 200.200012 1659.632935 203.5 C 1660.722656 207.456055 1661.442383 215.035645 1661.745605 225.75 L 1662.205566 242 Z M 903.723755 98 C 940.729492 207.662476 953.111694 246.024994 955.114502 254 C 958.732788 268.408203 958.762512 268.47467 959.807922 264.5 C 960.386597 262.299988 962.209412 255.325012 963.858704 249 C 965.507996 242.674988 977.475586 206.251404 990.453369 168.058655 C 1003.431152 129.865967 1014.197571 98.469116 1014.378723 98.287964 C 1014.559875 98.10675 1023.954895 98.080383 1035.25647 98.229248 L 1055.804932 98.5 L 1018.425354 201 C 997.866638 257.375 980.365112 305.30304 979.533142 307.506744 C 978.020386 311.513519 978.020386 311.513519 959.425659 311.513519 C 949.198547 311.513519 940.456726 311.282257 939.99939 310.999634 C 939.542114 310.71701 922.093384 263.688965 901.224548 206.492859 C 880.355652 149.296814 862.962524 101.487488 862.573181 100.25 C 861.865234 98 861.865234 98 882.794495 98 L 903.723755 98 Z M 1226 158 L 1262 158 L 1262.009399 176.25 L 1262.018921 194.5 L 1266.086304 186.165161 C 1269.051392 180.089478 1271.962524 176.0177 1276.826904 171.142822 C 1280.49707 167.464722 1285.797363 163.235229 1288.605225 161.74408 C 1291.412964 160.252869 1296.463013 158.327637 1299.827515 157.465698 C 1303.191895 156.60376 1308.544556 156.033875 1311.72229 156.19928 C 1317.5 156.5 1317.5 156.5 1317.771606 175.132813 L 1318.043213 193.765625 L 1308.271606 194.226013 C 1301.406372 194.5495 1296.769775 195.35675 1292.682983 196.940125 C 1288.806763 198.441895 1284.718384 201.20282 1280.429199 205.215149 C 1275.847534 209.501038 1272.981079 213.29187 1270.483276 218.368225 C 1268.553223 222.29071 1266.312744 228.650024 1265.504395 232.5 C 1264.370483 237.900543 1264.030762 247.727356 1264.017334 275.506744 L 1264 311.513519 L 1245.423462 311.513519 C 1235.206299 311.513519 1226.65625 311.322968 1226.423462 311.090088 C 1226.190552 310.857208 1226 276.316681 1226 234.333313 L 1226 158 Z M 225.5 298.482269 C 224.399994 298.709778 221.024994 297.986725 218 296.875488 C 213.863388 295.355896 211.090363 294.991516 206.813461 295.405548 C 203.685867 295.708344 199.34668 296.240753 197.170822 296.588684 C 193.214737 297.221283 193.214737 297.221283 192.303314 289.860626 C 191.802048 285.812286 191.64122 282.213196 191.945953 281.862701 C 192.250671 281.512177 197.108963 280.652344 202.742142 279.951996 C 211.965378 278.805267 213.564713 278.85434 218.818634 280.445099 C 224.382492 282.1297 224.910446 282.130432 230.205994 280.461151 C 235.189178 278.89035 236.771835 278.840912 245.629501 279.979462 C 251.058273 280.677246 255.880081 281.59491 256.344604 282.018707 C 256.809143 282.442505 256.71814 285.815186 256.142365 289.51355 C 255.566574 293.211914 254.900391 296.432953 254.661957 296.671387 C 254.423523 296.909821 250.351944 296.58902 245.613998 295.958527 C 238.211884 294.97348 236.331116 295.04129 232.249771 296.440399 C 229.637405 297.335938 226.600006 298.254791 225.5 298.482269 Z M 1114 284.631134 C 1118.472046 284.400452 1122.066162 283.500793 1125.519775 281.747711 C 1128.28064 280.346252 1132.626465 276.968597 1135.177002 274.241852 C 1137.727539 271.515076 1140.714844 267.519104 1141.815308 265.361938 C 1142.915894 263.204773 1144.559326 258.883698 1145.467529 255.759552 C 1146.375732 252.635406 1146.979614 248.148956 1146.809448 245.789642 C 1146.5 241.5 1146.5 241.5 1136 241.704895 C 1130.224976 241.817596 1121.675049 242.617615 1117 243.482727 C 1112.324951 244.347839 1105.689697 246.420227 1102.255005 248.088043 C 1098.571411 249.876648 1094.903198 252.571442 1093.311646 254.65799 C 1091.300049 257.29538 1090.507324 259.66333 1090.196289 263.963776 C 1089.897095 268.099731 1090.277466 270.782349 1091.540283 273.443726 C 1092.509033 275.485138 1094.799072 278.357941 1096.629272 279.827698 C 1098.459473 281.297455 1101.654053 283.054962 1103.728516 283.733246 C 1105.802856 284.41153 1110.425049 284.815582 1114 284.631134 Z M 335.681458 283.60141 C 332.880066 284.10907 332.103333 283.806671 330.697418 281.66095 C 329.656708 280.072632 326.748718 278.286591 322.945618 276.899902 C 319.598175 275.679352 315.121063 273.421539 312.996521 271.882538 C 310.871979 270.343506 307.86615 266.927856 306.316864 264.292175 C 303.935791 260.241364 303.5 258.391693 303.5 252.335907 C 303.5 248.39566 303.73938 244.931274 304.031952 244.637268 C 304.324554 244.343292 307.812042 245.050262 311.781952 246.208344 C 319 248.313934 319 248.313934 319 251.969879 C 319 254.679962 319.711487 256.278473 321.75 258.148499 C 323.262512 259.53595 326.603363 261.444336 329.174133 262.389313 C 331.744934 263.33432 335.652344 265.414307 337.857269 267.011566 C 340.062225 268.608826 343.067383 271.96521 344.5354 274.470184 C 346.003418 276.975159 346.972656 279.628906 346.68927 280.367371 C 346.405884 281.105865 344.559875 282.000305 342.587006 282.355042 C 340.614166 282.709778 337.506653 283.27063 335.681458 283.60141 Z M 1413 282.481415 C 1417.819092 282.155121 1421.365234 281.12149 1426.712769 278.484467 C 1431.481567 276.132751 1435.114746 273.476196 1437.435547 270.643951 C 1439.366089 268.287933 1442.098877 263.8414 1443.508301 260.762817 C 1444.917725 257.684204 1446.617432 252.563416 1447.2854 249.38327 C 1447.953491 246.203125 1448.5 239.677917 1448.5 234.882813 C 1448.5 229.732422 1447.769409 223.368408 1446.714844 219.332214 C 1445.733032 215.574524 1444.009644 210.596191 1442.88501 208.269348 C 1441.760376 205.942505 1438.787231 201.755127 1436.27771 198.96405 C 1433.768311 196.172974 1429.494141 192.763916 1426.779663 191.388367 C 1424.065063 190.012756 1419.516724 188.590149 1416.671997 188.226929 C 1413.827393 187.863708 1409.511841 187.698669 1407.081909 187.860168 C 1404.651978 188.021729 1400.286255 189.043396 1397.380249 190.130676 C 1394.474365 191.217957 1389.843628 194.13324 1387.089844 196.609131 C 1383.894653 199.481812 1380.828735 203.617859 1378.616821 208.039124 C 1376.710449 211.84967 1374.554688 217.562256 1373.826294 220.733704 C 1373.097778 223.905151 1372.516113 230.549988 1372.533691 235.5 C 1372.553467 241.052246 1373.278687 247.132568 1374.42688 251.37204 C 1375.450562 255.151672 1377.383423 260.32666 1378.722168 262.87204 C 1380.060791 265.417419 1383.033447 269.450378 1385.328003 271.834198 C 1387.622681 274.217987 1391.63562 277.262146 1394.245972 278.598969 C 1396.856201 279.935791 1400.681152 281.455261 1402.745972 281.975525 C 1404.810669 282.495819 1409.425049 282.72345 1413 282.481415 Z M 210.306107 258.888885 C 209.312744 258.827789 204.899994 257.90329 200.5 256.834442 C 196.100006 255.765594 190.858643 254.460663 188.852524 253.934601 C 185.205063 252.978119 185.205063 252.978119 187.026001 245.898926 C 188.027512 242.005371 189.034271 238.632385 189.263229 238.403442 C 189.492188 238.1745 193.765686 238.940125 198.759918 240.104858 C 207.840317 242.222565 207.840317 242.222565 211.920166 238.943909 C 215.563858 236.015747 216 235.200928 216 231.321777 C 216 227.045349 215.91423 226.936218 210.444916 224.253784 C 206.67308 222.403931 205.023987 221.043091 205.307785 220.014648 C 205.537659 219.18158 206.986267 215.953125 208.526932 212.84021 C 211.328125 207.180481 211.328125 207.180481 217.664063 210.304871 C 224 213.42926 224 213.42926 230.493698 210.227051 C 236.987396 207.024902 236.987396 207.024902 240.49794 213.995911 C 244.008484 220.966919 244.008484 220.966919 238.004242 223.997864 C 232.074829 226.991028 232.000381 227.081604 232.030914 231.264404 C 232.058899 235.097168 232.487305 235.820496 236.535614 238.870392 C 241.009384 242.240784 241.009384 242.240784 247.254684 240.713684 C 250.689606 239.873779 254.8965 238.898346 256.603333 238.546051 C 259.706665 237.905518 259.706665 237.905518 261.103333 244.202759 C 261.87149 247.666229 262.5 251.123566 262.5 251.885742 C 262.5 252.80545 259.305176 254.057434 253 255.608643 C 247.774994 256.894104 241.925003 258.209442 240 258.531616 C 236.887375 259.052582 235.824387 258.565552 230.395813 254.131287 C 224.291641 249.145172 224.291641 249.145172 218.201935 254.072601 C 214.852585 256.782654 211.299469 258.950012 210.306107 258.888885 Z M 533.390442 254.960846 C 530.150696 254.939331 526.075012 254.301819 524.333313 253.544159 C 522.591614 252.786499 519.344482 250.344482 517.117432 248.117462 C 514.890442 245.890411 511.924194 241.810547 510.525848 239.051025 C 507.983429 234.033752 507.983429 234.033752 511.241699 232.699097 C 513.033752 231.965027 516.366943 230.629272 518.648804 229.730774 C 522.797607 228.097168 522.797607 228.097168 523.971436 230.931091 C 524.617065 232.489746 526.402222 234.969238 527.938477 236.44104 C 529.47467 237.912842 531.579529 239.326935 532.615784 239.583435 C 533.6521 239.839966 535.878601 239.196259 537.563599 238.152985 C 539.248535 237.109711 542.030579 234.061035 543.74585 231.378052 C 545.461121 228.695129 547.998535 223.109619 549.384521 218.96582 C 550.770569 214.822021 552.306641 208.867676 552.798035 205.733948 C 553.28949 202.600159 553.789001 196.698547 553.908142 192.619202 C 554.027222 188.539917 553.610229 182.365295 552.981506 178.897949 C 552.352722 175.430542 551.156311 170.5849 550.322754 168.129761 C 549.489258 165.674622 547.708435 162.005432 546.365417 159.976013 C 545.022461 157.946655 542.817627 155.782288 541.46582 155.166382 C 539.893677 154.450073 538.158508 154.369446 536.650879 154.942627 C 535.354492 155.435486 532.684448 157.718994 530.717407 160.017029 C 527.140991 164.195251 527.140991 164.195251 520.615967 160.287476 C 514.090881 156.3797 514.090881 156.3797 515.912598 153.439819 C 516.914551 151.822937 519.481628 148.751465 521.617188 146.614441 C 523.752747 144.477356 527.42334 141.864014 529.774109 140.806946 C 532.124817 139.749939 536.281128 138.867798 539.010315 138.84668 C 542.135376 138.822449 545.642456 139.616699 548.483521 140.992004 C 550.964661 142.193115 554.600037 145.048767 556.562134 147.337891 C 558.524231 149.627075 561.40625 154.200012 562.966553 157.5 C 564.526917 160.799988 566.530151 166.875 567.418213 171 C 568.306274 175.125 569.181702 182.099976 569.363647 186.5 C 569.545593 190.900024 569.316895 198.298401 568.855469 202.940918 C 568.394104 207.583435 567.086487 214.783386 565.949768 218.940918 C 564.813049 223.098389 562.348267 229.698303 560.472534 233.6073 C 558.596802 237.516327 555.077576 242.921844 552.6521 245.619598 C 550.226624 248.317322 546.22583 251.531555 543.761536 252.762299 C 540.59845 254.34198 537.548828 254.988495 533.390442 254.960846 Z M 164.551895 248.921051 C 163.973358 248.877625 161.620895 248.17627 159.324234 247.362457 C 157.027557 246.548645 153.152756 244.126129 150.713577 241.979095 C 148.082657 239.663239 145.382904 235.992981 144.076447 232.956055 C 142.377731 229.007324 141.922501 226.181946 142.085495 220.59967 C 142.269104 214.311462 141.940689 212.754944 139.580643 208.727783 C 138.086746 206.17865 136.400787 202.413696 135.834061 200.361206 C 135.267334 198.308655 135.070038 194.96344 135.39563 192.927368 C 135.721207 190.891235 137.088226 186.849792 138.433426 183.946289 C 140.664764 179.130188 140.75351 178.424011 139.445343 175.894287 C 138.656693 174.369202 137.117844 172.495544 136.025681 171.73053 C 134.079666 170.367493 134.102844 170.251282 137.184769 165.919861 C 138.914429 163.488953 141.151047 160.616882 142.155045 159.537537 C 143.957764 157.599487 144.030655 157.624023 148.007385 161.507202 C 150.222183 163.669922 152.926575 167.282593 154.017136 169.5354 C 155.151611 171.878906 156 175.689148 156 178.440674 C 156 181.476379 155.034348 185.401672 153.3815 189.084717 C 151.58017 193.098572 150.96965 195.742981 151.425217 197.558044 C 151.789444 199.009277 154.366959 202.382202 157.153015 205.053467 C 162.218582 209.910278 162.218582 209.910278 160.05307 213.414124 C 158.862045 215.341248 157.640289 218.441772 157.338058 220.304199 C 156.990601 222.445374 157.38652 224.846741 158.414886 226.835388 C 159.309372 228.565125 161.729263 230.841553 163.792435 231.894104 C 167.543655 233.807861 167.543655 233.807861 166.57373 241.403931 C 166.040268 245.581757 165.130447 248.964478 164.551895 248.921051 Z M 285.796692 248.365448 C 283.342743 248.954773 283.044586 248.714203 282.564392 245.757324 C 282.273438 243.96579 281.760223 240.421875 281.42392 237.881927 C 280.852386 233.565186 280.975677 233.2229 283.313873 232.636047 C 284.689636 232.290771 286.981812 230.621887 288.407623 228.927429 C 290.172119 226.830383 291 224.668579 291 222.157837 C 291 220.129028 289.930634 216.469727 288.623627 214.026123 C 286.247253 209.583252 286.247253 209.583252 291.028198 205.284729 C 293.657715 202.920593 296.262177 199.686707 296.815857 198.098389 C 297.644073 195.722595 297.368073 194.260803 295.259552 189.855225 C 293.498901 186.176514 292.665771 182.702515 292.598267 178.758423 C 292.525909 174.531311 293.114777 171.856689 294.83075 168.618164 C 296.112671 166.198853 298.431976 163.002258 299.984741 161.514587 C 301.537537 160.026978 303.487396 158.740051 304.31781 158.654907 C 305.148224 158.569702 307.71817 161.125183 310.028809 164.33374 C 314.230011 170.16748 314.230011 170.16748 310.985321 173.515137 C 308.632965 175.942139 307.879395 177.500488 308.245178 179.181396 C 308.522705 180.456665 309.755524 183.70166 310.984772 186.392578 C 312.708618 190.166321 313.125793 192.584167 312.808899 196.965149 C 312.522491 200.924561 311.510681 204.137634 309.468597 207.57251 C 306.85611 211.966858 306.535736 213.419678 306.507629 221 C 306.48172 227.982422 306.052399 230.29895 304.102936 233.974976 C 302.797699 236.436279 300.3573 239.732086 298.67981 241.299103 C 297.00235 242.866089 294.025635 244.950989 292.064941 245.93219 C 290.104218 246.913391 287.283508 248.008362 285.796692 248.365448 Z M 529.188721 220.779724 C 526.059937 220.658569 516.974976 220.389587 509 220.181885 C 501.024994 219.974182 478.299988 219.721375 458.5 219.620056 C 422.807953 219.437439 422.411743 219.412598 412.182434 216.71698 C 406.507782 215.221619 398.577942 212.479492 394.560547 210.623352 C 390.543152 208.767151 384.386078 205.306458 380.878113 202.932861 C 377.370148 200.559265 371.95401 196.080872 368.842285 192.980896 C 365.73053 189.880859 360.95697 183.932251 358.234406 179.761719 C 355.511841 175.591125 352.13092 169.297791 350.721252 165.776489 C 349.311554 162.255188 347.488617 156.027466 346.670227 151.937073 C 345.851837 147.84668 344.91156 141.764832 344.58075 138.421875 C 344.249939 135.078918 344.42392 128.103882 344.967438 122.921875 C 345.510925 117.739868 346.647095 110.865601 347.492218 107.645813 C 348.337372 104.426025 350.368591 98.57605 352.006073 94.645813 C 353.643524 90.715637 356.8685 84.575012 359.172668 81 C 361.476868 77.424988 367.009155 70.900024 371.466705 66.5 C 375.924225 62.099976 382.129822 56.990417 385.256866 55.145386 C 388.383911 53.300354 393.655121 50.695068 396.970612 49.355896 C 400.286133 48.016663 406.036591 46.151245 409.74942 45.21051 C 414.583862 43.985535 420.615784 43.5 431 43.5 C 442.001709 43.5 448.199219 44.039063 456.687927 45.734253 C 462.841278 46.963074 472.741272 49.592285 478.687927 51.576965 C 484.634552 53.561707 494.674988 57.679626 501 60.727905 C 507.325012 63.776245 515.956299 67.802002 520.180664 69.674072 C 524.404968 71.546082 530.062073 73.33844 532.751892 73.657043 C 536.29303 74.076416 538.541321 73.771423 540.900024 72.551697 C 542.802063 71.568115 544.748962 69.451782 545.578796 67.465698 C 546.360474 65.59491 547 62.924805 547 61.532104 C 547 59.032471 547.103088 59 555.045288 59 C 563.090637 59 563.090637 59 562.477905 62.75 C 562.14093 64.8125 561.615601 67.849976 561.310547 69.5 C 561.005493 71.150024 559.937378 74.117615 558.93689 76.094666 C 557.936401 78.071777 555.499573 81.110229 553.521667 82.846802 C 551.543823 84.583435 548.254822 86.726318 546.212769 87.608887 C 543.859314 88.626038 539.75415 89.199219 535 89.174438 C 530.487366 89.151001 525.110107 88.375488 521.5 87.227539 C 518.200012 86.178162 510.372314 82.736267 504.105164 79.578796 C 497.837982 76.421387 488.837982 72.271545 484.105164 70.356934 C 479.372314 68.442322 470.774994 65.544006 465 63.916138 C 459.225006 62.288269 449.247009 60.272827 442.82666 59.437378 C 433.932465 58.280029 429.285919 58.152588 423.30954 58.901978 C 418.995453 59.442871 411.776917 61.050781 407.268372 62.475037 C 402.207092 64.073914 396.201263 66.984009 391.569885 70.081665 C 387.444275 72.841003 381.998901 77.438965 379.469055 80.299316 C 376.93924 83.159729 373.121765 88.424988 370.985779 92 C 368.849823 95.575012 365.645294 102.775024 363.864624 108 C 360.917694 116.647217 360.621368 118.622131 360.563538 130 C 360.519043 138.752136 361.037323 144.748718 362.292145 150 C 363.277863 154.125 365.697296 160.769226 367.668671 164.764954 C 369.825073 169.13562 373.891754 174.883362 377.876526 179.192566 C 381.51944 183.13208 387.702911 188.44873 391.617615 191.007446 C 395.840637 193.7677 402.682556 196.968567 408.441559 198.878174 C 413.78006 200.648376 421.827118 202.637024 426.323944 203.297302 C 431.755859 204.094971 449.938995 204.499329 480.5 204.502258 C 505.799988 204.504639 528.525024 204.742065 531 205.029907 C 535.278748 205.527527 535.516235 205.722778 535.830017 209.000122 C 536.011536 210.895935 535.87146 214.371399 535.518738 216.723511 C 534.877441 221 534.877441 221 529.188721 220.779724 Z M 1590.560425 216 C 1624.255615 216 1624.255615 216 1623.599609 211.75 C 1623.23877 209.412476 1622.266113 205.425842 1621.43811 202.890686 C 1620.610229 200.355591 1618.361328 196.445496 1616.440674 194.20166 C 1614.519897 191.957764 1610.372559 188.856995 1607.224243 187.310974 C 1602.288086 184.886963 1600.329834 184.504211 1593 184.53064 C 1585.803467 184.55658 1583.535156 185.002075 1578.208496 187.435791 C 1573.972412 189.371277 1570.32019 192.057556 1567.029175 195.658508 C 1564.234619 198.716125 1561.30896 203.253784 1560.19812 206.253357 C 1559.129395 209.138977 1557.942261 212.512512 1557.560059 213.75 C 1556.865234 216 1556.865234 216 1590.560425 216 Z M 181.266174 190.980835 C 180.844788 190.970337 177.800003 189.759094 174.5 188.289246 C 171.199997 186.819397 168.318878 185.484375 168.097519 185.322571 C 167.876144 185.160767 169.645111 180.712158 172.028534 175.436829 C 176.36203 165.845337 176.36203 165.845337 179.931015 166.512939 C 181.893951 166.880127 190.925003 168.980042 200 171.179443 C 209.074997 173.378784 216.622177 175.297852 216.7715 175.44397 C 216.920837 175.590149 216.261261 178.96698 215.305771 182.94812 C 213.568542 190.186646 213.568542 190.186646 210.034271 189.600525 C 208.090424 189.278137 202.675003 188.091309 198 186.963074 C 193.324997 185.834839 188.582718 184.681702 187.461578 184.400574 C 185.878906 184.003662 185.044128 184.684265 183.727768 187.444702 C 182.795288 189.400085 181.687576 190.991394 181.266174 190.980835 Z M 246.751083 187.881165 C 235.002182 190.721802 235.002182 190.721802 234.046249 187.110901 C 233.520493 185.124878 232.683563 181.657532 232.186417 179.40564 C 231.282516 175.311218 231.282516 175.311218 249.391266 170.970276 C 259.351074 168.582764 268.574615 166.60022 269.888 166.564697 C 271.942688 166.509033 272.878571 167.795715 276.592804 175.782593 C 280.909576 185.065186 280.909576 185.065186 275.204803 187.642761 C 272.067169 189.060425 268.737701 190.44165 267.80603 190.712158 C 266.587219 191.065979 265.686523 190.185547 264.595001 187.57312 C 263.334106 184.555359 262.691467 184.035034 260.788971 184.491394 C 259.530029 184.793396 253.212997 186.318787 246.751083 187.881165 Z M 537.143005 188.863831 C 536.789368 188.78894 535.599976 188.576843 534.5 188.392517 C 533.400024 188.208252 527.549988 187.798096 521.5 187.48114 C 515.450012 187.164124 507.799988 186.739807 504.5 186.538147 C 501.200012 186.336487 494.112488 186.132874 488.75 186.085754 C 479 186 479 186 479 177.971863 C 479 169.943726 479 169.943726 490.999237 170.478149 C 497.598816 170.772095 508.961334 171.251221 516.249268 171.542908 C 523.53717 171.834534 530.625 172.24469 532 172.454346 C 533.375 172.664001 535.543518 172.872559 536.818909 172.917786 C 539.029968 172.996155 539.127502 173.314026 538.91571 179.75 C 538.793579 183.462524 538.48938 187.0625 538.239807 187.75 C 537.990234 188.4375 537.496643 188.938721 537.143005 188.863831 Z M 166.414154 155.684937 C 165.911377 155.846863 163.176071 154.897583 160.335724 153.575378 C 157.495361 152.253235 153.286942 149.286926 150.983673 146.983704 C 148.68042 144.68042 145.733521 140.475342 144.435028 137.639038 C 143.136551 134.802795 141.770508 129.898682 141.399384 126.741089 C 140.72464 121 140.72464 121 148.343262 121 C 155.841965 121 155.971375 121.043274 156.563629 123.75 C 156.894577 125.262512 157.589508 127.837219 158.10791 129.471619 C 158.626328 131.106018 160.276627 133.748962 161.775238 135.344788 C 163.273865 136.940613 165.901779 138.846558 167.615051 139.5802 C 170.730103 140.914063 170.730103 140.914063 169.029205 148.152344 C 168.093719 152.133362 166.916946 155.52301 166.414154 155.684937 Z M 274.571869 154.936584 C 271.23233 154.901733 267.44046 154.448853 266.145477 153.930176 C 264.613525 153.316589 264.002563 152.465515 264.396667 151.493958 C 264.729797 150.672729 265.957733 147.542725 267.125427 144.538391 C 269.248505 139.075928 269.248505 139.075928 273.920654 139.248901 C 277.036346 139.364258 279.743317 138.754395 282.046417 137.418091 C 284.560913 135.959167 286.043823 134.001404 287.5 130.218262 C 289.5 125.022217 289.5 125.022217 296.877228 125.011108 C 304.254456 125 304.254456 125 303.788269 129.851563 C 303.531891 132.519958 302.311951 136.789856 301.077301 139.340332 C 299.842651 141.890747 296.820221 145.748718 294.360779 147.913635 C 291.901337 150.078552 287.808868 152.558594 285.266388 153.424927 C 282.723938 154.291199 277.911377 154.971497 274.571869 154.936584 Z M 217.124634 140.171509 C 213.126999 146.459045 213.126999 146.459045 209.17482 142.304443 C 207.001114 140.019409 204.39296 135.978638 203.378922 133.32489 C 202.364868 130.671204 201.534775 126.02301 201.534271 122.995605 C 201.533585 118.992371 202.162048 116.473877 203.838547 113.76123 C 205.249527 111.47821 209.438812 107.838867 214.638123 104.379395 C 219.310028 101.270813 223.778122 97.742065 224.567215 96.537781 C 225.356308 95.333435 226.857956 91.007263 227.904205 86.924072 C 229.465744 80.829834 230.12944 79.561096 231.609467 79.841187 C 232.601105 80.02887 235.83844 81.090088 238.803543 82.199463 C 244.194626 84.216492 244.194626 84.216492 243.50444 88.81897 C 243.124847 91.350281 241.951355 95.727722 240.896698 98.54657 C 239.842041 101.365417 237.746323 105.311157 236.239563 107.314941 C 234.732803 109.318726 229.899994 113.330078 225.5 116.229065 C 221.100006 119.128113 217.352463 122.298035 217.17215 123.273499 C 216.991837 124.248901 217.806854 127.035278 218.983292 129.465454 C 221.122253 133.884033 221.122253 133.884033 217.124634 140.171509 Z M 241.103683 137.886292 C 235.707367 138.163818 235.707367 138.163818 236.258896 132.081543 C 236.624146 128.053345 237.717941 124.450623 239.497604 121.413879 C 240.975555 118.891907 244.200439 115.404602 246.664001 113.664246 C 249.127563 111.923889 252.768768 109.932373 254.755569 109.238647 C 257.456116 108.295715 258.547211 108.267395 259.078217 109.126526 C 259.468872 109.758606 260.067383 112.126221 260.408295 114.387878 C 260.749176 116.649536 261.270508 119.682739 261.566772 121.128357 C 262.005951 123.271118 261.674896 123.864807 259.775024 124.341614 C 258.493286 124.66333 256.227539 126.196838 254.740051 127.749451 C 253.252563 129.302063 251.754959 131.97522 251.412033 133.689819 C 250.986755 135.816223 250.106857 136.934692 248.644272 137.208008 C 247.46492 137.428406 244.071655 137.733643 241.103683 137.886292 Z M 185.09288 125.933838 C 182.068985 128.087036 182.068985 128.087036 178.442093 120.88501 C 175.363907 114.772583 175.044281 113.554749 176.329453 112.83551 C 177.162292 112.369446 178.130371 110.682922 178.480743 109.087646 C 178.887512 107.235657 179.90979 105.99292 181.308884 105.649536 C 182.514008 105.353821 185.921341 104.795898 188.880768 104.409729 C 194.261536 103.707642 194.261536 103.707642 193.823502 109.763367 C 193.508865 114.113159 192.643341 116.940552 190.751114 119.799927 C 189.302231 121.989319 186.756027 124.749573 185.09288 125.933838 Z M 577.575439 126.609436 C 576.921936 126.860168 574.90625 125.222473 573.09613 122.970032 C 571.286011 120.71759 568.386414 118.204468 566.652527 117.385376 C 564.91864 116.566223 561.25 115.328308 558.5 114.63446 C 553.5 113.372864 553.5 113.372864 553.176758 105.809143 C 552.853577 98.245483 552.853577 98.245483 557.176758 98.645813 C 559.554565 98.866028 563.299988 99.53595 565.5 100.134521 C 567.700012 100.733093 571.207764 102.092163 573.295044 103.154724 C 575.382324 104.217285 578.937317 106.754639 581.195007 108.793335 C 583.452698 110.83197 586.423279 114.196655 587.796265 116.270325 C 589.169312 118.343994 590.114319 120.202393 589.896362 120.400024 C 589.678345 120.597656 587.08429 121.973083 584.131775 123.456421 C 581.17926 124.939819 578.228943 126.358643 577.575439 126.609436 Z M 394.151855 123.022339 C 393.602051 124.306335 392.347778 124.406982 386.139374 123.664978 C 378.778717 122.785278 378.778717 122.785278 379.40625 118.861023 C 379.751373 116.702637 381.160187 112.138489 382.536926 108.718384 C 383.913666 105.298279 387.2229 99.538574 389.890808 95.919067 C 392.968658 91.743286 397.018219 87.817749 400.970825 85.178345 C 404.396942 82.890442 410.156555 80.105408 413.769958 78.989319 C 417.383331 77.873291 423.750824 76.803101 427.919891 76.611145 C 432.088959 76.41925 437.466492 76.480591 439.869965 76.747559 C 444.239929 77.232971 444.239929 77.232971 443.611542 81.866455 C 443.26593 84.414917 442.720398 87.917114 442.399231 89.649109 C 441.815277 92.798218 441.815277 92.798218 434.029846 92.264587 C 427.850525 91.841064 424.809143 92.166931 419.287231 93.844116 C 414.390076 95.331604 410.921387 97.197266 407.57254 100.145081 C 404.955872 102.448364 401.805115 105.945435 400.570862 107.916443 C 399.336578 109.88739 397.534058 113.75 396.565216 116.5 C 395.596405 119.25 394.510406 122.185059 394.151855 123.022339 Z M 585.636353 91.5672 C 582.261353 91.742432 578.599976 91.661255 577.5 91.386841 C 576.400024 91.112366 574.314331 90.429932 572.865173 89.8703 C 570.230286 88.852783 570.230286 88.852783 573.259827 82.034302 C 576.289429 75.215881 576.289429 75.215881 581.926453 75.727051 C 586.938477 76.181519 587.905945 75.950073 590.652039 73.639343 C 592.350708 72.209961 594.335876 69.568909 595.063538 67.770264 C 595.791138 65.971619 596.811584 64.210083 597.331116 63.855774 C 597.850708 63.501404 600.126221 62.917419 602.387878 62.557922 C 604.649536 62.198486 607.512512 61.6521 608.75 61.34375 C 610.858459 60.81842 610.995239 61.088806 610.92395 65.641602 C 610.88208 68.313721 610.31958 71.9328 609.67395 73.684082 C 609.028259 75.435303 607.122681 78.810303 605.439331 81.184082 C 603.61084 83.762451 600.243652 86.657166 597.075623 88.374268 C 593.248718 90.448547 590.064697 91.337219 585.636353 91.5672 Z"/>
</svg>
